<svg width="19" height="19" viewBox="0 0 19 19" fill="none" xmlns="http://www.w3.org/2000/svg">
<mask id="mask0_111_486" style="mask-type:alpha" maskUnits="userSpaceOnUse" x="0" y="0" width="19" height="19">
<rect x="0.761719" width="18.1806" height="18.1806" fill="#D9D9D9"/>
</mask>
<g mask="url(#mask0_111_486)">
<path d="M4.54923 16.6655C4.13259 16.6655 3.77592 16.5171 3.47922 16.2204C3.18253 15.9237 3.03418 15.5671 3.03418 15.1504V4.54511C3.03418 4.12847 3.18253 3.7718 3.47922 3.47511C3.77592 3.17841 4.13259 3.03006 4.54923 3.03006H5.30675V2.27254C5.30675 2.05791 5.37935 1.87799 5.52454 1.7328C5.66973 1.58761 5.84964 1.51501 6.06427 1.51501C6.2789 1.51501 6.45882 1.58761 6.60401 1.7328C6.7492 1.87799 6.8218 2.05791 6.8218 2.27254V3.03006H12.882V2.27254C12.882 2.05791 12.9546 1.87799 13.0998 1.7328C13.245 1.58761 13.4249 1.51501 13.6395 1.51501C13.8541 1.51501 14.034 1.58761 14.1792 1.7328C14.3244 1.87799 14.397 2.05791 14.397 2.27254V3.03006H15.1545C15.5712 3.03006 15.9279 3.17841 16.2246 3.47511C16.5212 3.7718 16.6696 4.12847 16.6696 4.54511V15.1504C16.6696 15.5671 16.5212 15.9237 16.2246 16.2204C15.9279 16.5171 15.5712 16.6655 15.1545 16.6655H4.54923ZM4.54923 15.1504H15.1545V7.5752H4.54923V15.1504ZM4.54923 6.06015H15.1545V4.54511H4.54923V6.06015ZM9.85189 10.6053C9.63726 10.6053 9.45734 10.5327 9.31215 10.3875C9.16696 10.2423 9.09436 10.0624 9.09436 9.84777C9.09436 9.63314 9.16696 9.45323 9.31215 9.30803C9.45734 9.16284 9.63726 9.09025 9.85189 9.09025C10.0665 9.09025 10.2464 9.16284 10.3916 9.30803C10.5368 9.45323 10.6094 9.63314 10.6094 9.84777C10.6094 10.0624 10.5368 10.2423 10.3916 10.3875C10.2464 10.5327 10.0665 10.6053 9.85189 10.6053ZM6.8218 10.6053C6.60716 10.6053 6.42725 10.5327 6.28206 10.3875C6.13687 10.2423 6.06427 10.0624 6.06427 9.84777C6.06427 9.63314 6.13687 9.45323 6.28206 9.30803C6.42725 9.16284 6.60716 9.09025 6.8218 9.09025C7.03643 9.09025 7.21634 9.16284 7.36153 9.30803C7.50672 9.45323 7.57932 9.63314 7.57932 9.84777C7.57932 10.0624 7.50672 10.2423 7.36153 10.3875C7.21634 10.5327 7.03643 10.6053 6.8218 10.6053ZM12.882 10.6053C12.6673 10.6053 12.4874 10.5327 12.3422 10.3875C12.1971 10.2423 12.1245 10.0624 12.1245 9.84777C12.1245 9.63314 12.1971 9.45323 12.3422 9.30803C12.4874 9.16284 12.6673 9.09025 12.882 9.09025C13.0966 9.09025 13.2765 9.16284 13.4217 9.30803C13.5669 9.45323 13.6395 9.63314 13.6395 9.84777C13.6395 10.0624 13.5669 10.2423 13.4217 10.3875C13.2765 10.5327 13.0966 10.6053 12.882 10.6053ZM9.85189 13.6354C9.63726 13.6354 9.45734 13.5628 9.31215 13.4176C9.16696 13.2724 9.09436 13.0925 9.09436 12.8779C9.09436 12.6632 9.16696 12.4833 9.31215 12.3381C9.45734 12.1929 9.63726 12.1203 9.85189 12.1203C10.0665 12.1203 10.2464 12.1929 10.3916 12.3381C10.5368 12.4833 10.6094 12.6632 10.6094 12.8779C10.6094 13.0925 10.5368 13.2724 10.3916 13.4176C10.2464 13.5628 10.0665 13.6354 9.85189 13.6354ZM6.8218 13.6354C6.60716 13.6354 6.42725 13.5628 6.28206 13.4176C6.13687 13.2724 6.06427 13.0925 6.06427 12.8779C6.06427 12.6632 6.13687 12.4833 6.28206 12.3381C6.42725 12.1929 6.60716 12.1203 6.8218 12.1203C7.03643 12.1203 7.21634 12.1929 7.36153 12.3381C7.50672 12.4833 7.57932 12.6632 7.57932 12.8779C7.57932 13.0925 7.50672 13.2724 7.36153 13.4176C7.21634 13.5628 7.03643 13.6354 6.8218 13.6354ZM12.882 13.6354C12.6673 13.6354 12.4874 13.5628 12.3422 13.4176C12.1971 13.2724 12.1245 13.0925 12.1245 12.8779C12.1245 12.6632 12.1971 12.4833 12.3422 12.3381C12.4874 12.1929 12.6673 12.1203 12.882 12.1203C13.0966 12.1203 13.2765 12.1929 13.4217 12.3381C13.5669 12.4833 13.6395 12.6632 13.6395 12.8779C13.6395 13.0925 13.5669 13.2724 13.4217 13.4176C13.2765 13.5628 13.0966 13.6354 12.882 13.6354Z" fill="#15394E"/>
</g>
</svg>
