<svg width="90" height="90" viewBox="0 0 90 90" fill="none" xmlns="http://www.w3.org/2000/svg">
<mask id="mask0_55_517" style="mask-type:alpha" maskUnits="userSpaceOnUse" x="0" y="0" width="90" height="90">
<rect width="90" height="90" fill="#D9D9D9"/>
</mask>
<g mask="url(#mask0_55_517)">
<path d="M13.6208 78.75C12.5382 78.75 11.6307 78.3906 10.8983 77.6719C10.166 76.9531 9.7998 76.0625 9.7998 75C9.7998 73.9375 10.166 73.0469 10.8983 72.3281C11.6307 71.6094 12.5382 71.25 13.6208 71.25H44.1886V29.3438C42.5328 28.7813 41.1 27.9062 39.89 26.7188C38.68 25.5312 37.7885 24.125 37.2153 22.5H25.0837L35.5914 46.6875C35.9098 47.375 36.1009 48.0781 36.1646 48.7969C36.2282 49.5156 36.1964 50.25 36.069 51C35.4959 53.875 33.9197 56.0938 31.3406 57.6562C28.7614 59.2188 26.039 60 23.1732 60C20.3075 60 17.585 59.2188 15.0059 57.6562C12.4267 56.0938 10.8506 53.875 10.2774 51C10.1501 50.25 10.1182 49.5156 10.1819 48.7969C10.2456 48.0781 10.4366 47.375 10.755 46.6875L21.2627 22.5H17.4418C16.3591 22.5 15.4517 22.1406 14.7193 21.4219C13.987 20.7031 13.6208 19.8125 13.6208 18.75C13.6208 17.6875 13.987 16.7969 14.7193 16.0781C15.4517 15.3594 16.3591 15 17.4418 15H37.2153C37.9795 12.8125 39.3487 11.0156 41.3229 9.60938C43.297 8.20312 45.5259 7.5 48.0096 7.5C50.4932 7.5 52.7221 8.20312 54.6963 9.60938C56.6705 11.0156 58.0396 12.8125 58.8038 15H78.5774C79.66 15 80.5675 15.3594 81.2999 16.0781C82.0322 16.7969 82.3984 17.6875 82.3984 18.75C82.3984 19.8125 82.0322 20.7031 81.2999 21.4219C80.5675 22.1406 79.66 22.5 78.5774 22.5H74.7564L85.2641 46.6875C85.5825 47.375 85.7736 48.0781 85.8373 48.7969C85.9009 49.5156 85.8691 50.25 85.7417 51C85.1686 53.875 83.5924 56.0938 81.0133 57.6562C78.4341 59.2188 75.7117 60 72.8459 60C69.9802 60 67.2578 59.2188 64.6786 57.6562C62.0994 56.0938 60.5233 53.875 59.9501 51C59.8228 50.25 59.7909 49.5156 59.8546 48.7969C59.9183 48.0781 60.1093 47.375 60.4278 46.6875L70.9354 22.5H58.8038C58.2307 24.125 57.3391 25.5312 56.1292 26.7188C54.9192 27.9062 53.4863 28.7813 51.8306 29.3438V71.25H82.3984C83.481 71.25 84.3885 71.6094 85.1208 72.3281C85.8532 73.0469 86.2194 73.9375 86.2194 75C86.2194 76.0625 85.8532 76.9531 85.1208 77.6719C84.3885 78.3906 83.481 78.75 82.3984 78.75H13.6208ZM65.6816 48.75H80.0103L72.8459 32.4375L65.6816 48.75ZM16.0089 48.75H30.3376L23.1732 32.4375L16.0089 48.75ZM48.0096 22.5C49.0922 22.5 49.9997 22.1406 50.732 21.4219C51.4644 20.7031 51.8306 19.8125 51.8306 18.75C51.8306 17.6875 51.4644 16.7969 50.732 16.0781C49.9997 15.3594 49.0922 15 48.0096 15C46.927 15 46.0195 15.3594 45.2871 16.0781C44.5548 16.7969 44.1886 17.6875 44.1886 18.75C44.1886 19.8125 44.5548 20.7031 45.2871 21.4219C46.0195 22.1406 46.927 22.5 48.0096 22.5Z" fill="#FFC63E"/>
</g>
</svg>
