<svg width="19" height="19" viewBox="0 0 19 19" fill="none" xmlns="http://www.w3.org/2000/svg">
<mask id="mask0_202_538" style="mask-type:alpha" maskUnits="userSpaceOnUse" x="0" y="0" width="19" height="19">
<rect width="18.7873" height="18.7873" fill="#D9D9D9"/>
</mask>
<g mask="url(#mask0_202_538)">
<path d="M3.91424 17.2217C3.4837 17.2217 3.11513 17.0684 2.80853 16.7618C2.50193 16.4552 2.34863 16.0866 2.34863 15.656V4.69677C2.34863 4.26623 2.50193 3.89766 2.80853 3.59106C3.11513 3.28446 3.4837 3.13116 3.91424 3.13116H4.69705V2.34836C4.69705 2.12656 4.77207 1.94065 4.92211 1.79061C5.07214 1.64057 5.25806 1.56555 5.47985 1.56555C5.70165 1.56555 5.88757 1.64057 6.0376 1.79061C6.18764 1.94065 6.26266 2.12656 6.26266 2.34836V3.13116H12.5251V2.34836C12.5251 2.12656 12.6001 1.94065 12.7502 1.79061C12.9002 1.64057 13.0861 1.56555 13.3079 1.56555C13.5297 1.56555 13.7156 1.64057 13.8657 1.79061C14.0157 1.94065 14.0907 2.12656 14.0907 2.34836V3.13116H14.8735C15.3041 3.13116 15.6726 3.28446 15.9792 3.59106C16.2858 3.89766 16.4391 4.26623 16.4391 4.69677V15.656C16.4391 16.0866 16.2858 16.4552 15.9792 16.7618C15.6726 17.0684 15.3041 17.2217 14.8735 17.2217H3.91424ZM3.91424 15.656H14.8735V7.828H3.91424V15.656ZM3.91424 6.26238H14.8735V4.69677H3.91424V6.26238ZM9.39388 10.9592C9.17209 10.9592 8.98617 10.8842 8.83613 10.7342C8.6861 10.5841 8.61108 10.3982 8.61108 10.1764C8.61108 9.95462 8.6861 9.7687 8.83613 9.61866C8.98617 9.46863 9.17209 9.39361 9.39388 9.39361C9.61568 9.39361 9.80159 9.46863 9.95163 9.61866C10.1017 9.7687 10.1767 9.95462 10.1767 10.1764C10.1767 10.3982 10.1017 10.5841 9.95163 10.7342C9.80159 10.8842 9.61568 10.9592 9.39388 10.9592ZM6.26266 10.9592C6.04087 10.9592 5.85495 10.8842 5.70491 10.7342C5.55487 10.5841 5.47985 10.3982 5.47985 10.1764C5.47985 9.95462 5.55487 9.7687 5.70491 9.61866C5.85495 9.46863 6.04087 9.39361 6.26266 9.39361C6.48446 9.39361 6.67037 9.46863 6.82041 9.61866C6.97045 9.7687 7.04547 9.95462 7.04547 10.1764C7.04547 10.3982 6.97045 10.5841 6.82041 10.7342C6.67037 10.8842 6.48446 10.9592 6.26266 10.9592ZM12.5251 10.9592C12.3033 10.9592 12.1174 10.8842 11.9674 10.7342C11.8173 10.5841 11.7423 10.3982 11.7423 10.1764C11.7423 9.95462 11.8173 9.7687 11.9674 9.61866C12.1174 9.46863 12.3033 9.39361 12.5251 9.39361C12.7469 9.39361 12.9328 9.46863 13.0829 9.61866C13.2329 9.7687 13.3079 9.95462 13.3079 10.1764C13.3079 10.3982 13.2329 10.5841 13.0829 10.7342C12.9328 10.8842 12.7469 10.9592 12.5251 10.9592ZM9.39388 14.0904C9.17209 14.0904 8.98617 14.0154 8.83613 13.8654C8.6861 13.7153 8.61108 13.5294 8.61108 13.3076C8.61108 13.0858 8.6861 12.8999 8.83613 12.7499C8.98617 12.5998 9.17209 12.5248 9.39388 12.5248C9.61568 12.5248 9.80159 12.5998 9.95163 12.7499C10.1017 12.8999 10.1767 13.0858 10.1767 13.3076C10.1767 13.5294 10.1017 13.7153 9.95163 13.8654C9.80159 14.0154 9.61568 14.0904 9.39388 14.0904ZM6.26266 14.0904C6.04087 14.0904 5.85495 14.0154 5.70491 13.8654C5.55487 13.7153 5.47985 13.5294 5.47985 13.3076C5.47985 13.0858 5.55487 12.8999 5.70491 12.7499C5.85495 12.5998 6.04087 12.5248 6.26266 12.5248C6.48446 12.5248 6.67037 12.5998 6.82041 12.7499C6.97045 12.8999 7.04547 13.0858 7.04547 13.3076C7.04547 13.5294 6.97045 13.7153 6.82041 13.8654C6.67037 14.0154 6.48446 14.0904 6.26266 14.0904ZM12.5251 14.0904C12.3033 14.0904 12.1174 14.0154 11.9674 13.8654C11.8173 13.7153 11.7423 13.5294 11.7423 13.3076C11.7423 13.0858 11.8173 12.8999 11.9674 12.7499C12.1174 12.5998 12.3033 12.5248 12.5251 12.5248C12.7469 12.5248 12.9328 12.5998 13.0829 12.7499C13.2329 12.8999 13.3079 13.0858 13.3079 13.3076C13.3079 13.5294 13.2329 13.7153 13.0829 13.8654C12.9328 14.0154 12.7469 14.0904 12.5251 14.0904Z" fill="#F5FBFF"/>
</g>
</svg>
