<svg width="19" height="19" viewBox="0 0 19 19" fill="none" xmlns="http://www.w3.org/2000/svg">
<mask id="mask0_202_575" style="mask-type:alpha" maskUnits="userSpaceOnUse" x="0" y="0" width="19" height="19">
<rect width="18.7873" height="18.7873" fill="#D9D9D9"/>
</mask>
<g mask="url(#mask0_202_575)">
<path d="M15.6172 16.4389C13.9863 16.4389 12.3751 16.0834 10.7834 15.3723C9.19166 14.6613 7.74347 13.6534 6.43879 12.3487C5.13412 11.0441 4.12625 9.59586 3.41521 8.00416C2.70416 6.41245 2.34863 4.80118 2.34863 3.17033C2.34863 2.93549 2.42691 2.73979 2.58347 2.58323C2.74004 2.42667 2.93574 2.34839 3.17058 2.34839H6.34094C6.5236 2.34839 6.68668 2.41036 6.83019 2.5343C6.97371 2.65825 7.05851 2.80503 7.08461 2.97463L7.59343 5.71445C7.61952 5.9232 7.613 6.09933 7.57386 6.24285C7.53472 6.38636 7.46296 6.5103 7.35859 6.61468L5.46028 8.53255C5.72122 9.01528 6.03108 9.4817 6.38987 9.93182C6.74865 10.3819 7.14332 10.8157 7.57386 11.2332C7.97831 11.6377 8.40233 12.0128 8.84592 12.3585C9.28951 12.7043 9.75919 13.0206 10.255 13.3077L12.0946 11.4681C12.212 11.3507 12.3653 11.2626 12.5545 11.2039C12.7436 11.1452 12.9296 11.1289 13.1122 11.155L15.8129 11.7029C15.9955 11.7551 16.1456 11.8497 16.263 11.9867C16.3804 12.1237 16.4391 12.277 16.4391 12.4466V15.6169C16.4391 15.8518 16.3609 16.0475 16.2043 16.204C16.0477 16.3606 15.852 16.4389 15.6172 16.4389ZM4.71662 7.04522L6.00825 5.75359L5.67556 3.914H3.93381C3.99905 4.44892 4.09037 4.97731 4.2078 5.49918C4.32522 6.02105 4.49482 6.5364 4.71662 7.04522ZM11.7227 14.0513C12.2316 14.2731 12.7502 14.4493 13.2786 14.5797C13.8069 14.7102 14.3386 14.795 14.8735 14.8341V13.112L13.0339 12.7401L11.7227 14.0513Z" fill="#0F3146"/>
</g>
</svg>
