<svg width="16" height="16" viewBox="0 0 16 16" fill="none" xmlns="http://www.w3.org/2000/svg">
<path d="M5.33268 6.58774L7.67533 2.76717C7.73822 2.66236 7.81684 2.58636 7.91117 2.5392C8.00551 2.49203 8.10508 2.46844 8.2099 2.46844C8.31472 2.46844 8.41429 2.49203 8.50863 2.5392C8.60296 2.58636 8.68157 2.66236 8.74446 2.76717L11.0871 6.58774C11.15 6.69255 11.1814 6.80261 11.1814 6.91791C11.1814 7.03321 11.1552 7.13802 11.1028 7.23236C11.0504 7.32669 10.9771 7.40268 10.8827 7.46033C10.7884 7.51798 10.6783 7.54681 10.5525 7.54681H5.86725C5.74147 7.54681 5.63141 7.51798 5.53708 7.46033C5.44274 7.40268 5.36937 7.32669 5.31696 7.23236C5.26455 7.13802 5.23835 7.03321 5.23835 6.91791C5.23835 6.80261 5.26979 6.69255 5.33268 6.58774ZM11.6688 14.4647C10.8827 14.4647 10.2145 14.1896 9.66423 13.6393C9.11394 13.089 8.8388 12.4208 8.8388 11.6347C8.8388 10.8485 9.11394 10.1803 9.66423 9.63004C10.2145 9.07975 10.8827 8.80461 11.6688 8.80461C12.455 8.80461 13.1232 9.07975 13.6735 9.63004C14.2238 10.1803 14.4989 10.8485 14.4989 11.6347C14.4989 12.4208 14.2238 13.089 13.6735 13.6393C13.1232 14.1896 12.455 14.4647 11.6688 14.4647ZM2.5498 13.5214V9.74796C2.5498 9.56977 2.61007 9.4204 2.73061 9.29986C2.85115 9.17933 3.00052 9.11906 3.1787 9.11906H6.9521C7.13029 9.11906 7.27965 9.17933 7.40019 9.29986C7.52073 9.4204 7.581 9.56977 7.581 9.74796V13.5214C7.581 13.6995 7.52073 13.8489 7.40019 13.9694C7.27965 14.09 7.13029 14.1503 6.9521 14.1503H3.1787C3.00052 14.1503 2.85115 14.09 2.73061 13.9694C2.61007 13.8489 2.5498 13.6995 2.5498 13.5214ZM11.6688 13.2069C12.1091 13.2069 12.4812 13.0549 12.7851 12.7509C13.0891 12.447 13.2411 12.0749 13.2411 11.6347C13.2411 11.1944 13.0891 10.8223 12.7851 10.5184C12.4812 10.2144 12.1091 10.0624 11.6688 10.0624C11.2286 10.0624 10.8565 10.2144 10.5525 10.5184C10.2486 10.8223 10.0966 11.1944 10.0966 11.6347C10.0966 12.0749 10.2486 12.447 10.5525 12.7509C10.8565 13.0549 11.2286 13.2069 11.6688 13.2069ZM3.8076 12.8925H6.3232V10.3769H3.8076V12.8925ZM6.98355 6.28901H9.43625L8.2099 4.30798L6.98355 6.28901Z" fill="#708FA2"/>
</svg>
