<svg width="560" height="183" viewBox="0 0 560 183" fill="none" xmlns="http://www.w3.org/2000/svg">
<line x1="63.7405" y1="146.829" x2="63.7405" y2="-4.57515e-05" stroke="#F1F1F1" stroke-width="1.13821"/>
<path d="M57.4045 171.832H58.613V178.445C58.613 178.86 58.5376 179.21 58.3867 179.496C58.2385 179.781 58.0175 179.998 57.7238 180.147C57.4328 180.295 57.073 180.369 56.6446 180.369C56.6015 180.369 56.5611 180.369 56.5233 180.369C56.4829 180.369 56.4412 180.367 56.398 180.365V179.326C56.4358 179.326 56.4694 179.326 56.4991 179.326C56.526 179.326 56.557 179.326 56.5921 179.326C56.8777 179.326 57.0838 179.249 57.2105 179.096C57.3398 178.945 57.4045 178.725 57.4045 178.437V171.832ZM58.0027 170.874C57.7925 170.874 57.612 170.804 57.4611 170.664C57.3129 170.521 57.2388 170.352 57.2388 170.155C57.2388 169.955 57.3129 169.786 57.4611 169.646C57.612 169.503 57.7925 169.431 58.0027 169.431C58.2129 169.431 58.3921 169.503 58.5403 169.646C58.6912 169.786 58.7666 169.955 58.7666 170.155C58.7666 170.352 58.6912 170.521 58.5403 170.664C58.3921 170.804 58.2129 170.874 58.0027 170.874ZM61.7042 178.178C61.3108 178.178 60.9551 178.105 60.6371 177.96C60.3191 177.812 60.0672 177.597 59.8813 177.317C59.698 177.037 59.6064 176.693 59.6064 176.286C59.6064 175.936 59.6738 175.648 59.8085 175.421C59.9432 175.195 60.1251 175.016 60.3542 174.884C60.5832 174.752 60.8392 174.652 61.1221 174.585C61.4051 174.517 61.6934 174.466 61.9871 174.431C62.359 174.388 62.6608 174.353 62.8925 174.326C63.1243 174.296 63.2927 174.249 63.3978 174.185C63.5028 174.12 63.5554 174.015 63.5554 173.869V173.841C63.5554 173.488 63.4557 173.215 63.2563 173.021C63.0596 172.827 62.7659 172.73 62.3751 172.73C61.9683 172.73 61.6476 172.82 61.4132 173C61.1814 173.178 61.0211 173.376 60.9322 173.595L59.7964 173.336C59.9311 172.959 60.1278 172.654 60.3865 172.422C60.6479 172.188 60.9483 172.018 61.2879 171.913C61.6274 171.805 61.9844 171.751 62.359 171.751C62.6069 171.751 62.8696 171.781 63.1472 171.84C63.4274 171.897 63.6888 172.002 63.9313 172.156C64.1765 172.309 64.3773 172.529 64.5335 172.814C64.6898 173.097 64.768 173.465 64.768 173.918V178.041H63.5877V177.192H63.5392C63.4611 177.348 63.3439 177.502 63.1876 177.653C63.0313 177.804 62.8305 177.929 62.5853 178.029C62.3401 178.128 62.0464 178.178 61.7042 178.178ZM61.9669 177.208C62.301 177.208 62.5867 177.142 62.8238 177.01C63.0636 176.878 63.2455 176.705 63.3695 176.493C63.4961 176.277 63.5594 176.047 63.5594 175.801V175.001C63.5163 175.044 63.4328 175.085 63.3088 175.122C63.1876 175.157 63.0488 175.188 62.8925 175.215C62.7362 175.24 62.584 175.262 62.4358 175.284C62.2876 175.303 62.1636 175.319 62.0639 175.333C61.8295 175.362 61.6153 175.412 61.4212 175.482C61.2299 175.552 61.0763 175.653 60.9605 175.785C60.8473 175.915 60.7907 176.087 60.7907 176.303C60.7907 176.602 60.9012 176.828 61.1221 176.982C61.3431 177.133 61.6247 177.208 61.9669 177.208ZM67.2448 174.354V178.041H66.0362V171.832H67.1963V172.843H67.273C67.4159 172.514 67.6395 172.25 67.944 172.05C68.2512 171.851 68.6379 171.751 69.104 171.751C69.5271 171.751 69.8976 171.84 70.2156 172.018C70.5336 172.193 70.7801 172.455 70.9553 172.802C71.1304 173.15 71.218 173.58 71.218 174.092V178.041H70.0094V174.237C70.0094 173.787 69.8922 173.436 69.6578 173.182C69.4234 172.926 69.1014 172.798 68.6918 172.798C68.4115 172.798 68.1623 172.859 67.944 172.98C67.7284 173.101 67.5573 173.279 67.4307 173.514C67.3067 173.745 67.2448 174.026 67.2448 174.354Z" fill="#7D7D7D"/>
<line x1="129.045" y1="146.829" x2="129.045" y2="1.52837e-05" stroke="#F1F1F1" stroke-width="1.13821"/>
<path d="M124.841 171.832V172.802H121.333V171.832H124.841ZM122.295 178.041V171.113C122.295 170.725 122.38 170.403 122.55 170.147C122.719 169.888 122.944 169.695 123.225 169.569C123.505 169.439 123.809 169.375 124.138 169.375C124.381 169.375 124.588 169.395 124.76 169.435C124.933 169.473 125.061 169.508 125.144 169.54L124.862 170.519C124.805 170.502 124.732 170.484 124.643 170.462C124.554 170.438 124.447 170.426 124.32 170.426C124.026 170.426 123.816 170.498 123.689 170.644C123.565 170.789 123.503 171 123.503 171.274V178.041H122.295ZM128.178 178.166C127.566 178.166 127.04 178.035 126.598 177.774C126.158 177.51 125.819 177.139 125.579 176.662C125.342 176.183 125.223 175.621 125.223 174.977C125.223 174.341 125.342 173.78 125.579 173.295C125.819 172.81 126.153 172.432 126.581 172.16C127.013 171.887 127.516 171.751 128.093 171.751C128.443 171.751 128.783 171.809 129.112 171.925C129.44 172.041 129.735 172.223 129.997 172.471C130.258 172.719 130.464 173.041 130.615 173.437C130.766 173.83 130.842 174.309 130.842 174.872V175.3H125.906V174.395H129.657C129.657 174.077 129.593 173.795 129.463 173.55C129.334 173.302 129.152 173.107 128.918 172.964C128.686 172.821 128.414 172.75 128.101 172.75C127.762 172.75 127.465 172.833 127.212 173C126.961 173.165 126.767 173.38 126.63 173.647C126.495 173.911 126.428 174.198 126.428 174.508V175.215C126.428 175.63 126.501 175.983 126.646 176.274C126.794 176.565 127 176.788 127.265 176.941C127.529 177.092 127.837 177.168 128.19 177.168C128.419 177.168 128.628 177.135 128.817 177.071C129.005 177.003 129.168 176.904 129.306 176.771C129.443 176.639 129.548 176.476 129.621 176.282L130.765 176.489C130.673 176.825 130.509 177.12 130.272 177.374C130.037 177.624 129.742 177.82 129.387 177.96C129.034 178.097 128.631 178.166 128.178 178.166ZM131.938 178.041V169.763H133.147V172.839H133.219C133.289 172.709 133.391 172.56 133.523 172.39C133.655 172.22 133.838 172.072 134.072 171.945C134.307 171.816 134.617 171.751 135.002 171.751C135.503 171.751 135.95 171.878 136.344 172.131C136.737 172.385 137.046 172.75 137.269 173.227C137.496 173.704 137.609 174.278 137.609 174.949C137.609 175.62 137.497 176.195 137.273 176.674C137.05 177.151 136.743 177.519 136.352 177.778C135.961 178.034 135.515 178.162 135.014 178.162C134.637 178.162 134.328 178.099 134.088 177.972C133.851 177.845 133.665 177.697 133.531 177.527C133.396 177.358 133.292 177.207 133.219 177.075H133.118V178.041H131.938ZM133.122 174.936C133.122 175.373 133.186 175.756 133.312 176.084C133.439 176.413 133.622 176.67 133.862 176.856C134.102 177.04 134.396 177.131 134.743 177.131C135.104 177.131 135.406 177.036 135.649 176.844C135.891 176.65 136.074 176.387 136.198 176.056C136.325 175.725 136.388 175.351 136.388 174.936C136.388 174.527 136.326 174.159 136.202 173.833C136.081 173.507 135.898 173.25 135.653 173.061C135.41 172.872 135.107 172.778 134.743 172.778C134.393 172.778 134.096 172.868 133.854 173.049C133.614 173.229 133.432 173.481 133.308 173.805C133.184 174.128 133.122 174.505 133.122 174.936Z" fill="#7D7D7D"/>
<line x1="194.35" y1="146.829" x2="194.35" y2="1.52837e-05" stroke="#F1F1F1" stroke-width="1.13821"/>
<path d="M185.619 178.041V171.832H186.779V172.843H186.855C186.985 172.5 187.196 172.234 187.49 172.042C187.784 171.848 188.135 171.751 188.545 171.751C188.96 171.751 189.307 171.848 189.588 172.042C189.871 172.236 190.079 172.503 190.214 172.843H190.279C190.427 172.511 190.663 172.247 190.986 172.05C191.31 171.851 191.695 171.751 192.142 171.751C192.705 171.751 193.165 171.928 193.52 172.281C193.879 172.634 194.058 173.166 194.058 173.877V178.041H192.85V173.991C192.85 173.57 192.735 173.266 192.506 173.077C192.277 172.889 192.003 172.794 191.685 172.794C191.292 172.794 190.986 172.915 190.768 173.158C190.55 173.398 190.441 173.706 190.441 174.084V178.041H189.236V173.914C189.236 173.577 189.131 173.306 188.921 173.101C188.711 172.897 188.437 172.794 188.1 172.794C187.871 172.794 187.66 172.855 187.466 172.976C187.274 173.095 187.119 173.26 187.001 173.473C186.885 173.686 186.827 173.933 186.827 174.213V178.041H185.619ZM197.143 178.178C196.75 178.178 196.394 178.105 196.076 177.96C195.758 177.812 195.506 177.597 195.32 177.317C195.137 177.037 195.045 176.693 195.045 176.286C195.045 175.936 195.113 175.648 195.248 175.421C195.382 175.195 195.564 175.016 195.793 174.884C196.022 174.752 196.278 174.652 196.561 174.585C196.844 174.517 197.132 174.466 197.426 174.431C197.798 174.388 198.1 174.353 198.332 174.326C198.563 174.296 198.732 174.249 198.837 174.185C198.942 174.12 198.994 174.015 198.994 173.869V173.841C198.994 173.488 198.895 173.215 198.695 173.021C198.499 172.827 198.205 172.73 197.814 172.73C197.407 172.73 197.087 172.82 196.852 173C196.62 173.178 196.46 173.376 196.371 173.595L195.235 173.336C195.37 172.959 195.567 172.654 195.825 172.422C196.087 172.188 196.387 172.018 196.727 171.913C197.066 171.805 197.423 171.751 197.798 171.751C198.046 171.751 198.309 171.781 198.586 171.84C198.866 171.897 199.128 172.002 199.37 172.156C199.615 172.309 199.816 172.529 199.973 172.814C200.129 173.097 200.207 173.465 200.207 173.918V178.041H199.027V177.192H198.978C198.9 177.348 198.783 177.502 198.627 177.653C198.47 177.804 198.27 177.929 198.024 178.029C197.779 178.128 197.485 178.178 197.143 178.178ZM197.406 177.208C197.74 177.208 198.026 177.142 198.263 177.01C198.503 176.878 198.685 176.705 198.808 176.493C198.935 176.277 198.998 176.047 198.998 175.801V175.001C198.955 175.044 198.872 175.085 198.748 175.122C198.627 175.157 198.488 175.188 198.332 175.215C198.175 175.24 198.023 175.262 197.875 175.284C197.727 175.303 197.603 175.319 197.503 175.333C197.268 175.362 197.054 175.412 196.86 175.482C196.669 175.552 196.515 175.653 196.399 175.785C196.286 175.915 196.23 176.087 196.23 176.303C196.23 176.602 196.34 176.828 196.561 176.982C196.782 177.133 197.064 177.208 197.406 177.208ZM201.475 178.041V171.832H202.643V172.818H202.708C202.821 172.484 203.021 172.222 203.306 172.03C203.595 171.836 203.921 171.739 204.284 171.739C204.36 171.739 204.449 171.742 204.551 171.747C204.656 171.753 204.738 171.759 204.798 171.768V172.924C204.749 172.91 204.663 172.895 204.539 172.879C204.415 172.86 204.291 172.851 204.167 172.851C203.882 172.851 203.627 172.911 203.403 173.033C203.182 173.151 203.007 173.317 202.878 173.53C202.748 173.74 202.684 173.98 202.684 174.249V178.041H201.475Z" fill="#7D7D7D"/>
<line x1="259.656" y1="146.829" x2="259.655" y2="-4.57515e-05" stroke="#F1F1F1" stroke-width="1.13821"/>
<path d="M254.248 178.178C253.855 178.178 253.499 178.105 253.181 177.96C252.863 177.812 252.611 177.597 252.425 177.317C252.242 177.037 252.15 176.693 252.15 176.286C252.15 175.936 252.218 175.648 252.352 175.421C252.487 175.195 252.669 175.016 252.898 174.884C253.127 174.752 253.383 174.652 253.666 174.585C253.949 174.517 254.237 174.466 254.531 174.431C254.903 174.388 255.205 174.353 255.436 174.326C255.668 174.296 255.837 174.249 255.942 174.185C256.047 174.12 256.099 174.015 256.099 173.869V173.841C256.099 173.488 256 173.215 255.8 173.021C255.604 172.827 255.31 172.73 254.919 172.73C254.512 172.73 254.192 172.82 253.957 173C253.725 173.178 253.565 173.376 253.476 173.595L252.34 173.336C252.475 172.959 252.672 172.654 252.93 172.422C253.192 172.188 253.492 172.018 253.832 171.913C254.171 171.805 254.528 171.751 254.903 171.751C255.151 171.751 255.414 171.781 255.691 171.84C255.971 171.897 256.233 172.002 256.475 172.156C256.72 172.309 256.921 172.529 257.078 172.814C257.234 173.097 257.312 173.465 257.312 173.918V178.041H256.132V177.192H256.083C256.005 177.348 255.888 177.502 255.732 177.653C255.575 177.804 255.375 177.929 255.129 178.029C254.884 178.128 254.59 178.178 254.248 178.178ZM254.511 177.208C254.845 177.208 255.131 177.142 255.368 177.01C255.608 176.878 255.789 176.705 255.913 176.493C256.04 176.277 256.103 176.047 256.103 175.801V175.001C256.06 175.044 255.977 175.085 255.853 175.122C255.732 175.157 255.593 175.188 255.436 175.215C255.28 175.24 255.128 175.262 254.98 175.284C254.832 175.303 254.708 175.319 254.608 175.333C254.373 175.362 254.159 175.412 253.965 175.482C253.774 175.552 253.62 175.653 253.504 175.785C253.391 175.915 253.335 176.087 253.335 176.303C253.335 176.602 253.445 176.828 253.666 176.982C253.887 177.133 254.169 177.208 254.511 177.208ZM258.58 180.369V171.832H259.76V172.839H259.861C259.932 172.709 260.033 172.56 260.165 172.39C260.297 172.22 260.48 172.072 260.714 171.945C260.949 171.816 261.259 171.751 261.644 171.751C262.145 171.751 262.592 171.878 262.986 172.131C263.379 172.385 263.688 172.75 263.912 173.227C264.138 173.704 264.251 174.278 264.251 174.949C264.251 175.62 264.139 176.195 263.916 176.674C263.692 177.151 263.385 177.519 262.994 177.778C262.603 178.034 262.157 178.162 261.656 178.162C261.279 178.162 260.97 178.099 260.731 177.972C260.493 177.845 260.307 177.697 260.173 177.527C260.038 177.358 259.934 177.207 259.861 177.075H259.789V180.369H258.58ZM259.764 174.936C259.764 175.373 259.828 175.756 259.954 176.084C260.081 176.413 260.264 176.67 260.504 176.856C260.744 177.04 261.038 177.131 261.385 177.131C261.746 177.131 262.048 177.036 262.291 176.844C262.533 176.65 262.716 176.387 262.84 176.056C262.967 175.725 263.03 175.351 263.03 174.936C263.03 174.527 262.968 174.159 262.844 173.833C262.723 173.507 262.54 173.25 262.295 173.061C262.052 172.872 261.749 172.778 261.385 172.778C261.035 172.778 260.739 172.868 260.496 173.049C260.256 173.229 260.074 173.481 259.95 173.805C259.826 174.128 259.764 174.505 259.764 174.936ZM265.264 178.041V171.832H266.432V172.818H266.496C266.61 172.484 266.809 172.222 267.095 172.03C267.383 171.836 267.709 171.739 268.073 171.739C268.148 171.739 268.237 171.742 268.34 171.747C268.445 171.753 268.527 171.759 268.586 171.768V172.924C268.538 172.91 268.451 172.895 268.327 172.879C268.203 172.86 268.08 172.851 267.956 172.851C267.67 172.851 267.415 172.911 267.192 173.033C266.971 173.151 266.796 173.317 266.666 173.53C266.537 173.74 266.472 173.98 266.472 174.249V178.041H265.264Z" fill="#7D7D7D"/>
<line x1="326.098" y1="146.829" x2="326.098" y2="-4.57515e-05" stroke="#F1F1F1" stroke-width="1.13821"/>
<path d="M316.439 178.041V171.832H317.599V172.843H317.676C317.805 172.5 318.017 172.234 318.31 172.042C318.604 171.848 318.956 171.751 319.365 171.751C319.78 171.751 320.128 171.848 320.408 172.042C320.691 172.236 320.9 172.503 321.035 172.843H321.099C321.247 172.511 321.483 172.247 321.807 172.05C322.13 171.851 322.515 171.751 322.963 171.751C323.526 171.751 323.985 171.928 324.341 172.281C324.699 172.634 324.879 173.166 324.879 173.877V178.041H323.67V173.991C323.67 173.57 323.555 173.266 323.326 173.077C323.097 172.889 322.824 172.794 322.506 172.794C322.112 172.794 321.807 172.915 321.588 173.158C321.37 173.398 321.261 173.706 321.261 174.084V178.041H320.056V173.914C320.056 173.577 319.951 173.306 319.741 173.101C319.531 172.897 319.258 172.794 318.921 172.794C318.692 172.794 318.48 172.855 318.286 172.976C318.095 173.095 317.94 173.26 317.821 173.473C317.705 173.686 317.647 173.933 317.647 174.213V178.041H316.439ZM327.964 178.178C327.57 178.178 327.214 178.105 326.897 177.96C326.579 177.812 326.327 177.597 326.141 177.317C325.957 177.037 325.866 176.693 325.866 176.286C325.866 175.936 325.933 175.648 326.068 175.421C326.203 175.195 326.385 175.016 326.614 174.884C326.843 174.752 327.099 174.652 327.382 174.585C327.665 174.517 327.953 174.466 328.247 174.431C328.618 174.388 328.92 174.353 329.152 174.326C329.384 174.296 329.552 174.249 329.657 174.185C329.762 174.12 329.815 174.015 329.815 173.869V173.841C329.815 173.488 329.715 173.215 329.516 173.021C329.319 172.827 329.025 172.73 328.635 172.73C328.228 172.73 327.907 172.82 327.673 173C327.441 173.178 327.281 173.376 327.192 173.595L326.056 173.336C326.191 172.959 326.387 172.654 326.646 172.422C326.907 172.188 327.208 172.018 327.547 171.913C327.887 171.805 328.244 171.751 328.618 171.751C328.866 171.751 329.129 171.781 329.407 171.84C329.687 171.897 329.948 172.002 330.191 172.156C330.436 172.309 330.637 172.529 330.793 172.814C330.949 173.097 331.027 173.465 331.027 173.918V178.041H329.847V177.192H329.799C329.721 177.348 329.603 177.502 329.447 177.653C329.291 177.804 329.09 177.929 328.845 178.029C328.6 178.128 328.306 178.178 327.964 178.178ZM328.226 177.208C328.56 177.208 328.846 177.142 329.083 177.01C329.323 176.878 329.505 176.705 329.629 176.493C329.756 176.277 329.819 176.047 329.819 175.801V175.001C329.776 175.044 329.692 175.085 329.568 175.122C329.447 175.157 329.308 175.188 329.152 175.215C328.996 175.24 328.843 175.262 328.695 175.284C328.547 175.303 328.423 175.319 328.323 175.333C328.089 175.362 327.875 175.412 327.681 175.482C327.489 175.552 327.336 175.653 327.22 175.785C327.107 175.915 327.05 176.087 327.05 176.303C327.05 176.602 327.161 176.828 327.382 176.982C327.603 177.133 327.884 177.208 328.226 177.208ZM332.837 180.369C332.657 180.369 332.492 180.354 332.344 180.324C332.196 180.297 332.085 180.268 332.013 180.235L332.304 179.245C332.525 179.304 332.721 179.33 332.894 179.322C333.066 179.314 333.219 179.249 333.351 179.128C333.485 179.007 333.604 178.809 333.706 178.534L333.856 178.121L331.584 171.832H332.878L334.45 176.65H334.515L336.087 171.832H337.384L334.826 178.869C334.707 179.193 334.556 179.466 334.373 179.69C334.19 179.916 333.972 180.086 333.718 180.199C333.465 180.312 333.171 180.369 332.837 180.369Z" fill="#7D7D7D"/>
<line x1="392.54" y1="146.829" x2="392.54" y2="1.52837e-05" stroke="#F1F1F1" stroke-width="1.13821"/>
<path d="M386.061 171.832H387.269V178.445C387.269 178.86 387.194 179.21 387.043 179.496C386.895 179.781 386.674 179.998 386.38 180.147C386.089 180.295 385.729 180.369 385.301 180.369C385.258 180.369 385.217 180.369 385.18 180.369C385.139 180.369 385.097 180.367 385.054 180.365V179.326C385.092 179.326 385.126 179.326 385.155 179.326C385.182 179.326 385.213 179.326 385.248 179.326C385.534 179.326 385.74 179.249 385.867 179.096C385.996 178.945 386.061 178.725 386.061 178.437V171.832ZM386.659 170.874C386.449 170.874 386.268 170.804 386.117 170.664C385.969 170.521 385.895 170.352 385.895 170.155C385.895 169.955 385.969 169.786 386.117 169.646C386.268 169.503 386.449 169.431 386.659 169.431C386.869 169.431 387.048 169.503 387.197 169.646C387.347 169.786 387.423 169.955 387.423 170.155C387.423 170.352 387.347 170.521 387.197 170.664C387.048 170.804 386.869 170.874 386.659 170.874ZM392.487 175.466V171.832H393.699V178.041H392.511V176.965H392.446C392.303 177.297 392.074 177.573 391.759 177.794C391.446 178.012 391.057 178.121 390.591 178.121C390.192 178.121 389.839 178.034 389.532 177.859C389.227 177.681 388.988 177.418 388.812 177.071C388.64 176.723 388.554 176.293 388.554 175.781V171.832H389.762V175.636C389.762 176.059 389.879 176.396 390.114 176.646C390.348 176.897 390.653 177.022 391.027 177.022C391.254 177.022 391.479 176.965 391.702 176.852C391.929 176.739 392.116 176.568 392.264 176.339C392.415 176.11 392.489 175.819 392.487 175.466ZM396.19 174.354V178.041H394.981V171.832H396.142V172.843H396.218C396.361 172.514 396.585 172.25 396.889 172.05C397.196 171.851 397.583 171.751 398.049 171.751C398.472 171.751 398.843 171.84 399.161 172.018C399.479 172.193 399.725 172.455 399.901 172.802C400.076 173.15 400.163 173.58 400.163 174.092V178.041H398.955V174.237C398.955 173.787 398.838 173.436 398.603 173.182C398.369 172.926 398.047 172.798 397.637 172.798C397.357 172.798 397.108 172.859 396.889 172.98C396.674 173.101 396.503 173.279 396.376 173.514C396.252 173.745 396.19 174.026 396.19 174.354Z" fill="#7D7D7D"/>
<line x1="458.984" y1="146.829" x2="458.984" y2="1.52837e-05" stroke="#F1F1F1" stroke-width="1.13821"/>
<path d="M454.488 171.832H455.696V178.445C455.696 178.86 455.621 179.21 455.47 179.496C455.322 179.781 455.101 179.998 454.807 180.147C454.516 180.295 454.156 180.369 453.728 180.369C453.685 180.369 453.644 180.369 453.607 180.369C453.566 180.369 453.524 180.367 453.481 180.365V179.326C453.519 179.326 453.553 179.326 453.582 179.326C453.609 179.326 453.64 179.326 453.675 179.326C453.961 179.326 454.167 179.249 454.294 179.096C454.423 178.945 454.488 178.725 454.488 178.437V171.832ZM455.086 170.874C454.876 170.874 454.695 170.804 454.544 170.664C454.396 170.521 454.322 170.352 454.322 170.155C454.322 169.955 454.396 169.786 454.544 169.646C454.695 169.503 454.876 169.431 455.086 169.431C455.296 169.431 455.475 169.503 455.624 169.646C455.774 169.786 455.85 169.955 455.85 170.155C455.85 170.352 455.774 170.521 455.624 170.664C455.475 170.804 455.296 170.874 455.086 170.874ZM460.914 175.466V171.832H462.126V178.041H460.938V176.965H460.873C460.73 177.297 460.501 177.573 460.186 177.794C459.873 178.012 459.484 178.121 459.018 178.121C458.619 178.121 458.266 178.034 457.959 177.859C457.654 177.681 457.415 177.418 457.239 177.071C457.067 176.723 456.981 176.293 456.981 175.781V171.832H458.189V175.636C458.189 176.059 458.306 176.396 458.541 176.646C458.775 176.897 459.08 177.022 459.454 177.022C459.681 177.022 459.906 176.965 460.129 176.852C460.356 176.739 460.543 176.568 460.691 176.339C460.842 176.11 460.916 175.819 460.914 175.466ZM464.617 169.763V178.041H463.408V169.763H464.617Z" fill="#7D7D7D"/>
<line x1="526.565" y1="146.829" x2="526.565" y2="1.52837e-05" stroke="#F1F1F1" stroke-width="1.13821"/>
<path d="M519.957 178.178C519.564 178.178 519.208 178.105 518.89 177.96C518.572 177.812 518.32 177.597 518.134 177.317C517.951 177.037 517.86 176.693 517.86 176.286C517.86 175.936 517.927 175.648 518.062 175.421C518.196 175.195 518.378 175.016 518.607 174.884C518.836 174.752 519.092 174.652 519.375 174.585C519.658 174.517 519.947 174.466 520.24 174.431C520.612 174.388 520.914 174.353 521.146 174.326C521.377 174.296 521.546 174.249 521.651 174.185C521.756 174.12 521.809 174.015 521.809 173.869V173.841C521.809 173.488 521.709 173.215 521.51 173.021C521.313 172.827 521.019 172.73 520.628 172.73C520.221 172.73 519.901 172.82 519.666 173C519.435 173.178 519.274 173.376 519.185 173.595L518.05 173.336C518.184 172.959 518.381 172.654 518.64 172.422C518.901 172.188 519.202 172.018 519.541 171.913C519.881 171.805 520.238 171.751 520.612 171.751C520.86 171.751 521.123 171.781 521.4 171.84C521.681 171.897 521.942 172.002 522.185 172.156C522.43 172.309 522.63 172.529 522.787 172.814C522.943 173.097 523.021 173.465 523.021 173.918V178.041H521.841V177.192H521.792C521.714 177.348 521.597 177.502 521.441 177.653C521.285 177.804 521.084 177.929 520.839 178.029C520.593 178.128 520.3 178.178 519.957 178.178ZM520.22 177.208C520.554 177.208 520.84 177.142 521.077 177.01C521.317 176.878 521.499 176.705 521.623 176.493C521.749 176.277 521.813 176.047 521.813 175.801V175.001C521.77 175.044 521.686 175.085 521.562 175.122C521.441 175.157 521.302 175.188 521.146 175.215C520.989 175.24 520.837 175.262 520.689 175.284C520.541 175.303 520.417 175.319 520.317 175.333C520.083 175.362 519.868 175.412 519.674 175.482C519.483 175.552 519.33 175.653 519.214 175.785C519.101 175.915 519.044 176.087 519.044 176.303C519.044 176.602 519.154 176.828 519.375 176.982C519.596 177.133 519.878 177.208 520.22 177.208ZM528.222 175.466V171.832H529.435V178.041H528.246V176.965H528.182C528.039 177.297 527.81 177.573 527.495 177.794C527.182 178.012 526.793 178.121 526.327 178.121C525.928 178.121 525.575 178.034 525.268 177.859C524.963 177.681 524.723 177.418 524.548 177.071C524.376 176.723 524.289 176.293 524.289 175.781V171.832H525.498V175.636C525.498 176.059 525.615 176.396 525.85 176.646C526.084 176.897 526.389 177.022 526.763 177.022C526.989 177.022 527.214 176.965 527.438 176.852C527.664 176.739 527.852 176.568 528 176.339C528.151 176.11 528.225 175.819 528.222 175.466ZM533.32 180.498C532.827 180.498 532.403 180.433 532.047 180.304C531.694 180.175 531.406 180.004 531.182 179.791C530.958 179.578 530.791 179.345 530.681 179.092L531.72 178.663C531.792 178.782 531.889 178.907 532.011 179.039C532.135 179.174 532.302 179.288 532.512 179.383C532.725 179.477 532.998 179.524 533.332 179.524C533.79 179.524 534.169 179.412 534.468 179.189C534.767 178.968 534.917 178.615 534.917 178.13V176.909H534.84C534.767 177.041 534.662 177.188 534.525 177.349C534.39 177.511 534.204 177.651 533.967 177.77C533.73 177.888 533.421 177.948 533.041 177.948C532.551 177.948 532.109 177.833 531.716 177.604C531.325 177.372 531.015 177.032 530.786 176.582C530.56 176.129 530.446 175.572 530.446 174.912C530.446 174.252 530.558 173.686 530.782 173.215C531.008 172.743 531.318 172.382 531.712 172.131C532.105 171.878 532.551 171.751 533.049 171.751C533.435 171.751 533.746 171.816 533.983 171.945C534.22 172.072 534.405 172.22 534.537 172.39C534.672 172.56 534.775 172.709 534.848 172.839H534.937V171.832H536.121V178.178C536.121 178.712 535.997 179.149 535.749 179.492C535.502 179.834 535.166 180.087 534.743 180.252C534.323 180.416 533.848 180.498 533.32 180.498ZM533.308 176.945C533.656 176.945 533.949 176.864 534.189 176.703C534.432 176.538 534.615 176.304 534.739 175.999C534.866 175.692 534.929 175.324 534.929 174.896C534.929 174.478 534.867 174.111 534.743 173.793C534.619 173.475 534.437 173.227 534.197 173.049C533.958 172.868 533.661 172.778 533.308 172.778C532.944 172.778 532.641 172.872 532.399 173.061C532.156 173.247 531.973 173.5 531.849 173.821C531.728 174.142 531.667 174.5 531.667 174.896C531.667 175.303 531.729 175.66 531.853 175.967C531.977 176.274 532.16 176.514 532.403 176.687C532.648 176.859 532.95 176.945 533.308 176.945Z" fill="#7D7D7D"/>
<path d="M3.93685 2.7221V11H2.68385V3.9751H2.63535L0.654795 5.26852V4.07211L2.72023 2.7221H3.93685ZM8.71653 11.1374C8.07791 11.1347 7.53224 10.9663 7.07955 10.6322C6.62685 10.298 6.28059 9.81167 6.04077 9.17304C5.80094 8.53441 5.68103 7.7651 5.68103 6.86509C5.68103 5.96778 5.80094 5.20116 6.04077 4.56523C6.28328 3.92929 6.63089 3.44426 7.08359 3.11013C7.53898 2.77599 8.08329 2.60892 8.71653 2.60892C9.34977 2.60892 9.89274 2.77734 10.3454 3.11417C10.7981 3.4483 11.1444 3.93333 11.3842 4.56927C11.6267 5.20251 11.748 5.96778 11.748 6.86509C11.748 7.76779 11.6281 8.53846 11.3883 9.17708C11.1484 9.81302 10.8022 10.2994 10.3495 10.6362C9.89678 10.9704 9.35246 11.1374 8.71653 11.1374ZM8.71653 10.0582C9.27702 10.0582 9.71489 9.78472 10.0302 9.23771C10.3481 8.6907 10.5071 7.89983 10.5071 6.86509C10.5071 6.17796 10.4344 5.59727 10.2888 5.12301C10.146 4.64606 9.93989 4.28498 9.67043 4.03977C9.40366 3.79187 9.0857 3.66791 8.71653 3.66791C8.15874 3.66791 7.72087 3.94277 7.4029 4.49247C7.08493 5.04217 6.9246 5.83305 6.92191 6.86509C6.92191 7.55492 6.99332 8.1383 7.13613 8.61525C7.28164 9.08951 7.48778 9.44924 7.75455 9.69445C8.02132 9.93697 8.34198 10.0582 8.71653 10.0582ZM15.7223 11.1374C15.0837 11.1347 14.538 10.9663 14.0853 10.6322C13.6326 10.298 13.2864 9.81167 13.0465 9.17304C12.8067 8.53441 12.6868 7.7651 12.6868 6.86509C12.6868 5.96778 12.8067 5.20116 13.0465 4.56523C13.2891 3.92929 13.6367 3.44426 14.0894 3.11013C14.5448 2.77599 15.0891 2.60892 15.7223 2.60892C16.3556 2.60892 16.8985 2.77734 17.3512 3.11417C17.8039 3.4483 18.1502 3.93333 18.39 4.56927C18.6325 5.20251 18.7538 5.96778 18.7538 6.86509C18.7538 7.76779 18.6339 8.53846 18.394 9.17708C18.1542 9.81302 17.808 10.2994 17.3553 10.6362C16.9026 10.9704 16.3582 11.1374 15.7223 11.1374ZM15.7223 10.0582C16.2828 10.0582 16.7207 9.78472 17.0359 9.23771C17.3539 8.6907 17.5129 7.89983 17.5129 6.86509C17.5129 6.17796 17.4401 5.59727 17.2946 5.12301C17.1518 4.64606 16.9457 4.28498 16.6762 4.03977C16.4094 3.79187 16.0915 3.66791 15.7223 3.66791C15.1645 3.66791 14.7266 3.94277 14.4087 4.49247C14.0907 5.04217 13.9304 5.83305 13.9277 6.86509C13.9277 7.55492 13.9991 8.1383 14.1419 8.61525C14.2874 9.08951 14.4936 9.44924 14.7603 9.69445C15.0271 9.93697 15.3478 10.0582 15.7223 10.0582ZM20.9739 8.89415L20.9658 7.41884H21.176L23.6497 4.79157H25.0967L22.2754 7.78261H22.0854L20.9739 8.89415ZM19.8624 11V2.7221H21.0709V11H19.8624ZM23.783 11L21.56 8.04938L22.3926 7.20461L25.2664 11H23.783Z" fill="#7D7D7D"/>
<path d="M48.9434 8.40942L526.423 8.40942" stroke="#F1F1F1" stroke-width="1.13821"/>
<path d="M3.52862 45.8286C3.02203 45.8286 2.56663 45.7316 2.16244 45.5376C1.76094 45.3409 1.44028 45.0714 1.20046 44.7292C0.960635 44.387 0.83264 43.9963 0.816473 43.5571H2.02906C2.0587 43.9127 2.21633 44.2051 2.50196 44.4342C2.78759 44.6632 3.12981 44.7777 3.52862 44.7777C3.84658 44.7777 4.12817 44.705 4.37338 44.5595C4.62129 44.4113 4.8153 44.2078 4.95542 43.9491C5.09824 43.6904 5.16965 43.3954 5.16965 43.0639C5.16965 42.7271 5.09689 42.4267 4.95138 42.1626C4.80587 41.8985 4.60512 41.691 4.34913 41.5401C4.09584 41.3892 3.80482 41.3124 3.47607 41.3097C3.22547 41.3097 2.97352 41.3528 2.72023 41.4391C2.46693 41.5253 2.26214 41.6385 2.10585 41.7786L0.961983 41.6088L1.42681 37.4376H5.97803V38.5087H2.46559L2.20286 40.8247H2.25136C2.41304 40.6684 2.62726 40.5377 2.89403 40.4326C3.16349 40.3275 3.45182 40.275 3.75901 40.275C4.2629 40.275 4.71156 40.3949 5.10497 40.6347C5.50109 40.8746 5.81232 41.202 6.03866 41.6169C6.26771 42.0292 6.38088 42.5035 6.37819 43.0397C6.38088 43.5759 6.25962 44.0542 6.01441 44.4746C5.7719 44.8949 5.43507 45.2264 5.00393 45.4689C4.57548 45.7087 4.08371 45.8286 3.52862 45.8286ZM10.3949 45.8529C9.75632 45.8502 9.21066 45.6818 8.75796 45.3476C8.30526 45.0135 7.959 44.5271 7.71918 43.8885C7.47936 43.2499 7.35945 42.4806 7.35945 41.5805C7.35945 40.6832 7.47936 39.9166 7.71918 39.2807C7.9617 38.6447 8.30931 38.1597 8.762 37.8256C9.2174 37.4914 9.76171 37.3244 10.3949 37.3244C11.0282 37.3244 11.5712 37.4928 12.0239 37.8296C12.4766 38.1638 12.8228 38.6488 13.0626 39.2847C13.3051 39.918 13.4264 40.6832 13.4264 41.5805C13.4264 42.4832 13.3065 43.2539 13.0667 43.8925C12.8269 44.5285 12.4806 45.0149 12.0279 45.3517C11.5752 45.6858 11.0309 45.8529 10.3949 45.8529ZM10.3949 44.7737C10.9554 44.7737 11.3933 44.5002 11.7086 43.9532C12.0265 43.4062 12.1855 42.6153 12.1855 41.5805C12.1855 40.8934 12.1128 40.3127 11.9673 39.8385C11.8245 39.3615 11.6183 39.0004 11.3488 38.7552C11.0821 38.5073 10.7641 38.3834 10.3949 38.3834C9.83716 38.3834 9.39928 38.6582 9.08132 39.2079C8.76335 39.7576 8.60302 40.5485 8.60033 41.5805C8.60033 42.2704 8.67173 42.8538 8.81455 43.3307C8.96006 43.805 9.1662 44.1647 9.43297 44.4099C9.69974 44.6524 10.0204 44.7737 10.3949 44.7737ZM15.6465 43.6096L15.6384 42.1343H15.8486L18.3223 39.507H19.7693L16.948 42.4981H16.7581L15.6465 43.6096ZM14.535 45.7155V37.4376H15.7435V45.7155H14.535ZM18.4557 45.7155L16.2326 42.7648L17.0652 41.9201L19.9391 45.7155H18.4557Z" fill="#7D7D7D"/>
<path d="M48.9434 42.8405L526.423 42.8405" stroke="#F1F1F1" stroke-width="1.13821"/>
<path d="M0.796263 80.4309V79.5255L3.59733 76.6234C3.89643 76.3081 4.14299 76.0319 4.33701 75.7948C4.53371 75.555 4.68057 75.3273 4.77758 75.1117C4.87458 74.8961 4.92309 74.6671 4.92309 74.4246C4.92309 74.1497 4.85842 73.9126 4.72907 73.7132C4.59973 73.5111 4.42323 73.3562 4.19958 73.2484C3.97593 73.1379 3.72398 73.0827 3.44374 73.0827C3.14733 73.0827 2.88864 73.1433 2.66768 73.2645C2.44672 73.3858 2.27696 73.5569 2.1584 73.7779C2.03983 73.9988 1.98055 74.2575 1.98055 74.5539H0.788179C0.788179 74.05 0.904048 73.6095 1.13579 73.2322C1.36752 72.855 1.68549 72.5626 2.08968 72.3551C2.49388 72.1449 2.95331 72.0398 3.46799 72.0398C3.98805 72.0398 4.44614 72.1436 4.84225 72.3511C5.24105 72.5559 5.55228 72.8361 5.77594 73.1918C5.99959 73.5448 6.11142 73.9436 6.11142 74.3882C6.11142 74.6954 6.05348 74.9958 5.93762 75.2896C5.82444 75.5833 5.62639 75.9107 5.34345 76.2717C5.06051 76.6301 4.6671 77.0653 4.1632 77.5773L2.51813 79.2992V79.3598H6.2448V80.4309H0.796263ZM10.3171 80.5683C9.67851 80.5656 9.13285 80.3972 8.68015 80.0631C8.22746 79.729 7.8812 79.2426 7.64138 78.6039C7.40155 77.9653 7.28164 77.196 7.28164 76.296C7.28164 75.3987 7.40155 74.6321 7.64138 73.9961C7.88389 73.3602 8.2315 72.8752 8.6842 72.541C9.13959 72.2069 9.6839 72.0398 10.3171 72.0398C10.9504 72.0398 11.4933 72.2082 11.946 72.5451C12.3987 72.8792 12.745 73.3642 12.9848 74.0002C13.2273 74.6334 13.3486 75.3987 13.3486 76.296C13.3486 77.1987 13.2287 77.9694 12.9889 78.608C12.749 79.2439 12.4028 79.7303 11.9501 80.0671C11.4974 80.4013 10.9531 80.5683 10.3171 80.5683ZM10.3171 79.4891C10.8776 79.4891 11.3155 79.2156 11.6308 78.6686C11.9487 78.1216 12.1077 77.3307 12.1077 76.296C12.1077 75.6089 12.035 75.0282 11.8895 74.5539C11.7466 74.077 11.5405 73.7159 11.271 73.4707C11.0043 73.2228 10.6863 73.0988 10.3171 73.0988C9.75935 73.0988 9.32148 73.3737 9.00351 73.9234C8.68554 74.4731 8.52521 75.264 8.52252 76.296C8.52252 76.9858 8.59393 77.5692 8.73674 78.0462C8.88225 78.5204 9.08839 78.8801 9.35516 79.1254C9.62193 79.3679 9.94259 79.4891 10.3171 79.4891ZM15.5687 78.3251L15.5606 76.8497H15.7708L18.2445 74.2225H19.6915L16.8702 77.2135H16.6803L15.5687 78.3251ZM14.4572 80.4309V72.153H15.6657V80.4309H14.4572ZM18.3779 80.4309L16.1548 77.4803L16.9874 76.6355L19.8613 80.4309H18.3779Z" fill="#7D7D7D"/>
<path d="M48.9434 78.4094H526.423" stroke="#F1F1F1" stroke-width="1.13821"/>
<path d="M3.93685 106.868V115.146H2.68385V108.121H2.63535L0.654795 109.415V108.218L2.72023 106.868H3.93685ZM8.71653 115.284C8.07791 115.281 7.53224 115.113 7.07955 114.779C6.62685 114.444 6.28059 113.958 6.04077 113.319C5.80094 112.681 5.68103 111.911 5.68103 111.011C5.68103 110.114 5.80094 109.348 6.04077 108.712C6.28328 108.076 6.63089 107.591 7.08359 107.256C7.53898 106.922 8.08329 106.755 8.71653 106.755C9.34977 106.755 9.89274 106.924 10.3454 107.261C10.7981 107.595 11.1444 108.08 11.3842 108.716C11.6267 109.349 11.748 110.114 11.748 111.011C11.748 111.914 11.6281 112.685 11.3883 113.323C11.1484 113.959 10.8022 114.446 10.3495 114.783C9.89678 115.117 9.35246 115.284 8.71653 115.284ZM8.71653 114.205C9.27702 114.205 9.71489 113.931 10.0302 113.384C10.3481 112.837 10.5071 112.046 10.5071 111.011C10.5071 110.324 10.4344 109.744 10.2888 109.269C10.146 108.792 9.93989 108.431 9.67043 108.186C9.40366 107.938 9.0857 107.814 8.71653 107.814C8.15874 107.814 7.72087 108.089 7.4029 108.639C7.08493 109.189 6.9246 109.979 6.92191 111.011C6.92191 111.701 6.99332 112.285 7.13613 112.762C7.28164 113.236 7.48778 113.596 7.75455 113.841C8.02132 114.083 8.34198 114.205 8.71653 114.205ZM13.9681 113.041L13.96 111.565H14.1702L16.6439 108.938H18.0909L15.2696 111.929H15.0796L13.9681 113.041ZM12.8566 115.146V106.868H14.0651V115.146H12.8566ZM16.7773 115.146L14.5542 112.196L15.3868 111.351L18.2607 115.146H16.7773Z" fill="#7D7D7D"/>
<path d="M48.9434 112.84H526.423" stroke="#F1F1F1" stroke-width="1.13821"/>
<path d="M3.67817 149.999C3.03954 149.997 2.49388 149.828 2.04118 149.494C1.58848 149.16 1.24222 148.673 1.0024 148.035C0.76258 147.396 0.642669 146.627 0.642669 145.727C0.642669 144.83 0.76258 144.063 1.0024 143.427C1.24492 142.791 1.59253 142.306 2.04522 141.972C2.50062 141.638 3.04493 141.471 3.67817 141.471C4.31141 141.471 4.85437 141.639 5.30707 141.976C5.75977 142.31 6.10603 142.795 6.34585 143.431C6.58837 144.064 6.70963 144.83 6.70963 145.727C6.70963 146.63 6.58972 147.4 6.34989 148.039C6.11007 148.675 5.76381 149.161 5.31111 149.498C4.85842 149.832 4.3141 149.999 3.67817 149.999ZM3.67817 148.92C4.23865 148.92 4.67653 148.647 4.9918 148.1C5.30977 147.553 5.46875 146.762 5.46875 145.727C5.46875 145.04 5.39599 144.459 5.25048 143.985C5.10767 143.508 4.90153 143.147 4.63207 142.902C4.3653 142.654 4.04733 142.53 3.67817 142.53C3.12038 142.53 2.6825 142.805 2.36454 143.354C2.04657 143.904 1.88624 144.695 1.88355 145.727C1.88355 146.417 1.95495 147 2.09777 147.477C2.24328 147.951 2.44942 148.311 2.71619 148.556C2.98295 148.799 3.30362 148.92 3.67817 148.92Z" fill="#7D7D7D"/>
<path d="M48.9434 147.271L527.141 147.271" stroke="#F1F1F1" stroke-width="1.13821"/>
<mask id="mask0_191_525" style="mask-type:alpha" maskUnits="userSpaceOnUse" x="64" y="0" width="462" height="147">
<rect x="64.8779" y="0.442017" width="460.976" height="145.691" fill="#D9D9D9"/>
</mask>
<g mask="url(#mask0_191_525)">
<path d="M194.065 60.1979L128.618 111.987L63.7402 123.938V147.271L526.423 147.84V8.4093L459.269 36.8646L392.683 97.7684L326.098 119.964L260.082 36.8646L194.065 60.1979Z" fill="url(#paint0_linear_191_525)" stroke="#FFC63E" stroke-width="1.13821" stroke-dasharray="2.28 2.28"/>
</g>
<defs>
<linearGradient id="paint0_linear_191_525" x1="295.082" y1="8.4093" x2="295.082" y2="147.271" gradientUnits="userSpaceOnUse">
<stop stop-color="#EFBC42" stop-opacity="0.8"/>
<stop offset="1" stop-color="#EFBC42" stop-opacity="0.1"/>
</linearGradient>
</defs>
</svg>
