<svg width="90" height="90" viewBox="0 0 90 90" fill="none" xmlns="http://www.w3.org/2000/svg">
<mask id="mask0_52_25" style="mask-type:alpha" maskUnits="userSpaceOnUse" x="0" y="0" width="90" height="90">
<rect width="90" height="90" fill="#EFBC42"/>
</mask>
<g mask="url(#mask0_52_25)">
<path d="M22.5 67.5L13.875 76.125C12.6875 77.3125 11.3281 77.5781 9.79688 76.9219C8.26562 76.2656 7.5 75.0938 7.5 73.4062V15C7.5 12.9375 8.23438 11.1719 9.70313 9.70313C11.1719 8.23438 12.9375 7.5 15 7.5H75C77.0625 7.5 78.8281 8.23438 80.2969 9.70313C81.7656 11.1719 82.5 12.9375 82.5 15V60C82.5 62.0625 81.7656 63.8281 80.2969 65.2969C78.8281 66.7656 77.0625 67.5 75 67.5H22.5ZM19.3125 60H75V15H15V64.2188L19.3125 60ZM26.25 52.5H48.75C49.8125 52.5 50.7031 52.1406 51.4219 51.4219C52.1406 50.7031 52.5 49.8125 52.5 48.75C52.5 47.6875 52.1406 46.7969 51.4219 46.0781C50.7031 45.3594 49.8125 45 48.75 45H26.25C25.1875 45 24.2969 45.3594 23.5781 46.0781C22.8594 46.7969 22.5 47.6875 22.5 48.75C22.5 49.8125 22.8594 50.7031 23.5781 51.4219C24.2969 52.1406 25.1875 52.5 26.25 52.5ZM26.25 41.25H63.75C64.8125 41.25 65.7031 40.8906 66.4219 40.1719C67.1406 39.4531 67.5 38.5625 67.5 37.5C67.5 36.4375 67.1406 35.5469 66.4219 34.8281C65.7031 34.1094 64.8125 33.75 63.75 33.75H26.25C25.1875 33.75 24.2969 34.1094 23.5781 34.8281C22.8594 35.5469 22.5 36.4375 22.5 37.5C22.5 38.5625 22.8594 39.4531 23.5781 40.1719C24.2969 40.8906 25.1875 41.25 26.25 41.25ZM26.25 30H63.75C64.8125 30 65.7031 29.6406 66.4219 28.9219C67.1406 28.2031 67.5 27.3125 67.5 26.25C67.5 25.1875 67.1406 24.2969 66.4219 23.5781C65.7031 22.8594 64.8125 22.5 63.75 22.5H26.25C25.1875 22.5 24.2969 22.8594 23.5781 23.5781C22.8594 24.2969 22.5 25.1875 22.5 26.25C22.5 27.3125 22.8594 28.2031 23.5781 28.9219C24.2969 29.6406 25.1875 30 26.25 30Z" fill="#FFC63E"/>
</g>
</svg>
