<svg width="18" height="19" viewBox="0 0 18 19" fill="none" xmlns="http://www.w3.org/2000/svg">
<mask id="mask0_111_533" style="mask-type:alpha" maskUnits="userSpaceOnUse" x="0" y="0" width="18" height="19">
<rect y="0.868408" width="17.3684" height="17.3684" fill="#D9D9D9"/>
</mask>
<g mask="url(#mask0_111_533)">
<path d="M6.91083 11.8323L13.0441 5.69904C13.1888 5.5543 13.3607 5.48193 13.5597 5.48193C13.7587 5.48193 13.9306 5.5543 14.0753 5.69904C14.22 5.84378 14.2924 6.01565 14.2924 6.21466C14.2924 6.41368 14.22 6.58555 14.0753 6.73029L7.41741 13.3882C7.27267 13.5329 7.10381 13.6053 6.91083 13.6053C6.71784 13.6053 6.54898 13.5329 6.40425 13.3882L3.29241 10.2763C3.14767 10.1316 3.07832 9.95973 3.08435 9.76072C3.09038 9.5617 3.16576 9.38983 3.3105 9.24509C3.45523 9.10036 3.62711 9.02799 3.82612 9.02799C4.02514 9.02799 4.19701 9.10036 4.34175 9.24509L6.91083 11.8323Z" fill="#094B72" fill-opacity="0.7"/>
</g>
</svg>
