<svg width="8" height="8" viewBox="0 0 8 8" fill="none" xmlns="http://www.w3.org/2000/svg">
<path d="M3.8125 5.16659L1.39583 7.58325C1.24306 7.73603 1.04861 7.81242 0.8125 7.81242C0.576389 7.81242 0.381944 7.73603 0.229167 7.58325C0.0763889 7.43047 0 7.23603 0 6.99992C0 6.76381 0.0763889 6.56936 0.229167 6.41659L2.64583 3.99992L0.229167 1.60409C0.0763889 1.45131 0 1.25686 0 1.02075C0 0.784641 0.0763889 0.590196 0.229167 0.437419C0.381944 0.284641 0.576389 0.208252 0.8125 0.208252C1.04861 0.208252 1.24306 0.284641 1.39583 0.437419L3.8125 2.85409L6.20833 0.437419C6.36111 0.284641 6.55556 0.208252 6.79167 0.208252C7.02778 0.208252 7.22222 0.284641 7.375 0.437419C7.54167 0.604085 7.625 0.802002 7.625 1.03117C7.625 1.26034 7.54167 1.45131 7.375 1.60409L4.95833 3.99992L7.375 6.41659C7.52778 6.56936 7.60417 6.76381 7.60417 6.99992C7.60417 7.23603 7.52778 7.43047 7.375 7.58325C7.20833 7.74992 7.01042 7.83325 6.78125 7.83325C6.55208 7.83325 6.36111 7.74992 6.20833 7.58325L3.8125 5.16659Z" fill="#09283A"/>
</svg>
