<svg width="18" height="18" viewBox="0 0 18 18" fill="none" xmlns="http://www.w3.org/2000/svg">
<mask id="mask0_111_539" style="mask-type:alpha" maskUnits="userSpaceOnUse" x="0" y="0" width="18" height="18">
<rect width="17.1429" height="17.1429" fill="#D9D9D9"/>
</mask>
<g mask="url(#mask0_111_539)">
<path d="M5.00028 15C4.60742 15 4.27111 14.8601 3.99135 14.5803C3.71159 14.3006 3.57171 13.9643 3.57171 13.5714V4.28568C3.36933 4.28568 3.19968 4.21723 3.06278 4.08032C2.92587 3.94342 2.85742 3.77377 2.85742 3.57139C2.85742 3.36901 2.92587 3.19937 3.06278 3.06247C3.19968 2.92556 3.36933 2.85711 3.57171 2.85711H6.42885C6.42885 2.65473 6.4973 2.48508 6.63421 2.34818C6.77111 2.21127 6.94075 2.14282 7.14314 2.14282H10.0003C10.2027 2.14282 10.3723 2.21127 10.5092 2.34818C10.6461 2.48508 10.7146 2.65473 10.7146 2.85711H13.5717C13.7741 2.85711 13.9437 2.92556 14.0806 3.06247C14.2175 3.19937 14.286 3.36901 14.286 3.57139C14.286 3.77377 14.2175 3.94342 14.0806 4.08032C13.9437 4.21723 13.7741 4.28568 13.5717 4.28568V13.5714C13.5717 13.9643 13.4318 14.3006 13.1521 14.5803C12.8723 14.8601 12.536 15 12.1431 15H5.00028ZM12.1431 4.28568H5.00028V13.5714H12.1431V4.28568ZM7.14314 12.1428C7.34552 12.1428 7.51516 12.0744 7.65206 11.9375C7.78897 11.8006 7.85742 11.6309 7.85742 11.4285V6.42854C7.85742 6.22616 7.78897 6.05651 7.65206 5.91961C7.51516 5.7827 7.34552 5.71425 7.14314 5.71425C6.94075 5.71425 6.77111 5.7827 6.63421 5.91961C6.4973 6.05651 6.42885 6.22616 6.42885 6.42854V11.4285C6.42885 11.6309 6.4973 11.8006 6.63421 11.9375C6.77111 12.0744 6.94075 12.1428 7.14314 12.1428ZM10.0003 12.1428C10.2027 12.1428 10.3723 12.0744 10.5092 11.9375C10.6461 11.8006 10.7146 11.6309 10.7146 11.4285V6.42854C10.7146 6.22616 10.6461 6.05651 10.5092 5.91961C10.3723 5.7827 10.2027 5.71425 10.0003 5.71425C9.7979 5.71425 9.62825 5.7827 9.49135 5.91961C9.35445 6.05651 9.28599 6.22616 9.28599 6.42854V11.4285C9.28599 11.6309 9.35445 11.8006 9.49135 11.9375C9.62825 12.0744 9.7979 12.1428 10.0003 12.1428Z" fill="white"/>
</g>
</svg>
