<svg width="21" height="20" viewBox="0 0 21 20" fill="none" xmlns="http://www.w3.org/2000/svg">
<mask id="mask0_286_21" style="mask-type:alpha" maskUnits="userSpaceOnUse" x="0" y="0" width="21" height="20">
<rect x="0.5" width="20" height="20" fill="#D9D9D9"/>
</mask>
<g mask="url(#mask0_286_21)">
<path d="M10.5 18.3333C9.34724 18.3333 8.26391 18.1146 7.25002 17.6771C6.23613 17.2396 5.35419 16.6458 4.60419 15.8958C3.85419 15.1458 3.26044 14.2639 2.82294 13.25C2.38544 12.2361 2.16669 11.1528 2.16669 10C2.16669 8.84722 2.38544 7.76389 2.82294 6.75C3.26044 5.73611 3.85419 4.85416 4.60419 4.10416C5.35419 3.35416 6.23613 2.76041 7.25002 2.32291C8.26391 1.88541 9.34724 1.66666 10.5 1.66666C11.6528 1.66666 12.7361 1.88541 13.75 2.32291C14.7639 2.76041 15.6459 3.35416 16.3959 4.10416C17.1459 4.85416 17.7396 5.73611 18.1771 6.75C18.6146 7.76389 18.8334 8.84722 18.8334 10V11.2083C18.8334 12.0278 18.5521 12.7257 17.9896 13.3021C17.4271 13.8785 16.7361 14.1667 15.9167 14.1667C15.4306 14.1667 14.9722 14.0625 14.5417 13.8542C14.1111 13.6458 13.75 13.3472 13.4584 12.9583C13.0556 13.3611 12.6007 13.6632 12.0938 13.8646C11.5868 14.066 11.0556 14.1667 10.5 14.1667C9.34724 14.1667 8.3646 13.7604 7.5521 12.9479C6.7396 12.1354 6.33335 11.1528 6.33335 10C6.33335 8.84722 6.7396 7.86458 7.5521 7.05208C8.3646 6.23958 9.34724 5.83333 10.5 5.83333C11.6528 5.83333 12.6354 6.23958 13.4479 7.05208C14.2604 7.86458 14.6667 8.84722 14.6667 10V11.2083C14.6667 11.5694 14.7847 11.875 15.0209 12.125C15.257 12.375 15.5556 12.5 15.9167 12.5C16.2778 12.5 16.5764 12.375 16.8125 12.125C17.0486 11.875 17.1667 11.5694 17.1667 11.2083V10C17.1667 8.13889 16.5209 6.5625 15.2292 5.27083C13.9375 3.97916 12.3611 3.33333 10.5 3.33333C8.63891 3.33333 7.06252 3.97916 5.77085 5.27083C4.47919 6.5625 3.83335 8.13889 3.83335 10C3.83335 11.8611 4.47919 13.4375 5.77085 14.7292C7.06252 16.0208 8.63891 16.6667 10.5 16.6667H13.8334C14.0695 16.6667 14.2674 16.7465 14.4271 16.9062C14.5868 17.066 14.6667 17.2639 14.6667 17.5C14.6667 17.7361 14.5868 17.934 14.4271 18.0937C14.2674 18.2535 14.0695 18.3333 13.8334 18.3333H10.5ZM10.5 12.5C11.1945 12.5 11.7847 12.2569 12.2709 11.7708C12.757 11.2847 13 10.6944 13 10C13 9.30555 12.757 8.71528 12.2709 8.22916C11.7847 7.74305 11.1945 7.5 10.5 7.5C9.80558 7.5 9.2153 7.74305 8.72919 8.22916C8.24308 8.71528 8.00002 9.30555 8.00002 10C8.00002 10.6944 8.24308 11.2847 8.72919 11.7708C9.2153 12.2569 9.80558 12.5 10.5 12.5Z" fill="#26495D"/>
</g>
</svg>
