<svg width="20" height="20" viewBox="0 0 20 20" fill="none" xmlns="http://www.w3.org/2000/svg">
<mask id="mask0_286_197" style="mask-type:alpha" maskUnits="userSpaceOnUse" x="0" y="0" width="20" height="20">
<rect width="20" height="20" fill="#D9D9D9"/>
</mask>
<g mask="url(#mask0_286_197)">
<path d="M9.99935 18.3333C8.84657 18.3333 7.76324 18.1145 6.74935 17.677C5.73546 17.2395 4.85352 16.6458 4.10352 15.8958C3.35352 15.1458 2.75977 14.2638 2.32227 13.25C1.88477 12.2361 1.66602 11.1527 1.66602 9.99996C1.66602 8.84718 1.88477 7.76385 2.32227 6.74996C2.75977 5.73607 3.35352 4.85413 4.10352 4.10413C4.85352 3.35413 5.73546 2.76038 6.74935 2.32288C7.76324 1.88538 8.84657 1.66663 9.99935 1.66663C11.1521 1.66663 12.2355 1.88538 13.2493 2.32288C14.2632 2.76038 15.1452 3.35413 15.8952 4.10413C16.6452 4.85413 17.2389 5.73607 17.6764 6.74996C18.1139 7.76385 18.3327 8.84718 18.3327 9.99996V11.2083C18.3327 12.0277 18.0514 12.7257 17.4889 13.302C16.9264 13.8784 16.2355 14.1666 15.416 14.1666C14.9299 14.1666 14.4716 14.0625 14.041 13.8541C13.6105 13.6458 13.2493 13.3472 12.9577 12.9583C12.5549 13.3611 12.1 13.6632 11.5931 13.8645C11.0862 14.0659 10.5549 14.1666 9.99935 14.1666C8.84657 14.1666 7.86393 13.7604 7.05143 12.9479C6.23893 12.1354 5.83268 11.1527 5.83268 9.99996C5.83268 8.84718 6.23893 7.86454 7.05143 7.05204C7.86393 6.23954 8.84657 5.83329 9.99935 5.83329C11.1521 5.83329 12.1348 6.23954 12.9473 7.05204C13.7598 7.86454 14.166 8.84718 14.166 9.99996V11.2083C14.166 11.5694 14.2841 11.875 14.5202 12.125C14.7563 12.375 15.0549 12.5 15.416 12.5C15.7771 12.5 16.0757 12.375 16.3118 12.125C16.548 11.875 16.666 11.5694 16.666 11.2083V9.99996C16.666 8.13885 16.0202 6.56246 14.7285 5.27079C13.4368 3.97913 11.8605 3.33329 9.99935 3.33329C8.13824 3.33329 6.56185 3.97913 5.27018 5.27079C3.97852 6.56246 3.33268 8.13885 3.33268 9.99996C3.33268 11.8611 3.97852 13.4375 5.27018 14.7291C6.56185 16.0208 8.13824 16.6666 9.99935 16.6666H13.3327C13.5688 16.6666 13.7667 16.7465 13.9264 16.9062C14.0862 17.0659 14.166 17.2638 14.166 17.5C14.166 17.7361 14.0862 17.934 13.9264 18.0937C13.7667 18.2534 13.5688 18.3333 13.3327 18.3333H9.99935ZM9.99935 12.5C10.6938 12.5 11.2841 12.2569 11.7702 11.7708C12.2563 11.2847 12.4993 10.6944 12.4993 9.99996C12.4993 9.30551 12.2563 8.71524 11.7702 8.22913C11.2841 7.74301 10.6938 7.49996 9.99935 7.49996C9.3049 7.49996 8.71463 7.74301 8.22852 8.22913C7.7424 8.71524 7.49935 9.30551 7.49935 9.99996C7.49935 10.6944 7.7424 11.2847 8.22852 11.7708C8.71463 12.2569 9.3049 12.5 9.99935 12.5Z" fill="#F5FBFF"/>
</g>
</svg>
