<svg width="20" height="20" viewBox="0 0 20 20" fill="none" xmlns="http://www.w3.org/2000/svg">
<mask id="mask0_194_963" style="mask-type:alpha" maskUnits="userSpaceOnUse" x="0" y="0" width="20" height="20">
<rect width="20" height="20" fill="#D9D9D9"/>
</mask>
<g mask="url(#mask0_194_963)">
<path d="M13.75 17.0833C12.8333 17.0833 12.0486 16.7569 11.3958 16.1042C10.7431 15.4514 10.4167 14.6667 10.4167 13.75C10.4167 12.8333 10.7431 12.0486 11.3958 11.3958C12.0486 10.7431 12.8333 10.4167 13.75 10.4167C14.6667 10.4167 15.4514 10.7431 16.1042 11.3958C16.7569 12.0486 17.0833 12.8333 17.0833 13.75C17.0833 14.0694 17.0417 14.3715 16.9583 14.6562C16.875 14.941 16.7569 15.2083 16.6042 15.4583L18.5833 17.4167C18.6667 17.4861 18.7292 17.5729 18.7708 17.6771C18.8125 17.7812 18.8333 17.8889 18.8333 18C18.8333 18.1111 18.8125 18.2153 18.7708 18.3125C18.7292 18.4097 18.6667 18.5 18.5833 18.5833C18.5139 18.6528 18.4271 18.7083 18.3229 18.75C18.2188 18.7917 18.1111 18.8125 18 18.8125C17.8889 18.8125 17.7847 18.7917 17.6875 18.75C17.5903 18.7083 17.5 18.6528 17.4167 18.5833L15.4375 16.625C15.1875 16.7778 14.9201 16.8924 14.6354 16.9688C14.3507 17.0451 14.0556 17.0833 13.75 17.0833ZM4.58333 17.0833C3.66667 17.0833 2.88194 16.7569 2.22917 16.1042C1.57639 15.4514 1.25 14.6667 1.25 13.75C1.25 12.8333 1.57639 12.0486 2.22917 11.3958C2.88194 10.7431 3.66667 10.4167 4.58333 10.4167C5.5 10.4167 6.28472 10.7431 6.9375 11.3958C7.59028 12.0486 7.91667 12.8333 7.91667 13.75C7.91667 14.6667 7.59028 15.4514 6.9375 16.1042C6.28472 16.7569 5.5 17.0833 4.58333 17.0833ZM4.58333 15.4167C5.04167 15.4167 5.43403 15.2535 5.76042 14.9271C6.08681 14.6007 6.25 14.2083 6.25 13.75C6.25 13.2917 6.08681 12.8993 5.76042 12.5729C5.43403 12.2465 5.04167 12.0833 4.58333 12.0833C4.125 12.0833 3.73264 12.2465 3.40625 12.5729C3.07986 12.8993 2.91667 13.2917 2.91667 13.75C2.91667 14.2083 3.07986 14.6007 3.40625 14.9271C3.73264 15.2535 4.125 15.4167 4.58333 15.4167ZM13.75 15.4167C14.2083 15.4167 14.6007 15.2535 14.9271 14.9271C15.2535 14.6007 15.4167 14.2083 15.4167 13.75C15.4167 13.2917 15.2535 12.8993 14.9271 12.5729C14.6007 12.2465 14.2083 12.0833 13.75 12.0833C13.2917 12.0833 12.8993 12.2465 12.5729 12.5729C12.2465 12.8993 12.0833 13.2917 12.0833 13.75C12.0833 14.2083 12.2465 14.6007 12.5729 14.9271C12.8993 15.2535 13.2917 15.4167 13.75 15.4167ZM4.58333 7.91667C3.66667 7.91667 2.88194 7.59028 2.22917 6.9375C1.57639 6.28472 1.25 5.5 1.25 4.58333C1.25 3.66667 1.57639 2.88194 2.22917 2.22917C2.88194 1.57639 3.66667 1.25 4.58333 1.25C5.5 1.25 6.28472 1.57639 6.9375 2.22917C7.59028 2.88194 7.91667 3.66667 7.91667 4.58333C7.91667 5.5 7.59028 6.28472 6.9375 6.9375C6.28472 7.59028 5.5 7.91667 4.58333 7.91667ZM13.75 7.91667C12.8333 7.91667 12.0486 7.59028 11.3958 6.9375C10.7431 6.28472 10.4167 5.5 10.4167 4.58333C10.4167 3.66667 10.7431 2.88194 11.3958 2.22917C12.0486 1.57639 12.8333 1.25 13.75 1.25C14.6667 1.25 15.4514 1.57639 16.1042 2.22917C16.7569 2.88194 17.0833 3.66667 17.0833 4.58333C17.0833 5.5 16.7569 6.28472 16.1042 6.9375C15.4514 7.59028 14.6667 7.91667 13.75 7.91667ZM4.58333 6.25C5.04167 6.25 5.43403 6.08681 5.76042 5.76042C6.08681 5.43403 6.25 5.04167 6.25 4.58333C6.25 4.125 6.08681 3.73264 5.76042 3.40625C5.43403 3.07986 5.04167 2.91667 4.58333 2.91667C4.125 2.91667 3.73264 3.07986 3.40625 3.40625C3.07986 3.73264 2.91667 4.125 2.91667 4.58333C2.91667 5.04167 3.07986 5.43403 3.40625 5.76042C3.73264 6.08681 4.125 6.25 4.58333 6.25ZM13.75 6.25C14.2083 6.25 14.6007 6.08681 14.9271 5.76042C15.2535 5.43403 15.4167 5.04167 15.4167 4.58333C15.4167 4.125 15.2535 3.73264 14.9271 3.40625C14.6007 3.07986 14.2083 2.91667 13.75 2.91667C13.2917 2.91667 12.8993 3.07986 12.5729 3.40625C12.2465 3.73264 12.0833 4.125 12.0833 4.58333C12.0833 5.04167 12.2465 5.43403 12.5729 5.76042C12.8993 6.08681 13.2917 6.25 13.75 6.25Z" fill="#09283A"/>
</g>
</svg>
