<svg width="1440" height="679" viewBox="0 0 1440 679" fill="none" xmlns="http://www.w3.org/2000/svg">
<path d="M356.617 -847V679" stroke="#ECF3F8"/>
<path d="M735.815 -847V679" stroke="#ECF3F8"/>
<path d="M1115.01 -847V679" stroke="#ECF3F8"/>
<path d="M31.5904 -847V679" stroke="#ECF3F8"/>
<path d="M410.788 -847V679" stroke="#ECF3F8"/>
<path d="M789.986 -847V679" stroke="#ECF3F8"/>
<path d="M1169.18 -847V679" stroke="#ECF3F8"/>
<path d="M85.7615 -847V679" stroke="#ECF3F8"/>
<path d="M464.959 -847V679" stroke="#ECF3F8"/>
<path d="M844.157 -847V679" stroke="#ECF3F8"/>
<path d="M1223.35 -847V679" stroke="#ECF3F8"/>
<path d="M139.933 -847V679" stroke="#ECF3F8"/>
<path d="M519.13 -847V679" stroke="#ECF3F8"/>
<path d="M898.328 -847V679" stroke="#ECF3F8"/>
<path d="M1277.53 -847V679" stroke="#ECF3F8"/>
<path d="M194.104 -847V679" stroke="#ECF3F8"/>
<path d="M573.301 -847V679" stroke="#ECF3F8"/>
<path d="M952.499 -847V679" stroke="#ECF3F8"/>
<path d="M1331.7 -847V679" stroke="#ECF3F8"/>
<path d="M248.275 -847V679" stroke="#ECF3F8"/>
<path d="M627.472 -847V679" stroke="#ECF3F8"/>
<path d="M1006.67 -847V679" stroke="#ECF3F8"/>
<path d="M1385.87 -847V679" stroke="#ECF3F8"/>
<path d="M302.446 -847V679" stroke="#ECF3F8"/>
<path d="M681.644 -847V679" stroke="#ECF3F8"/>
<path d="M1060.84 -847V679" stroke="#ECF3F8"/>
<path d="M1440.04 -847V679" stroke="#ECF3F8"/>
<path d="M-54 647.581L1472 647.581" stroke="#ECF3F8"/>
<path d="M-54 268.383L1472 268.383" stroke="#ECF3F8"/>
<path d="M-54 593.41L1472 593.41" stroke="#ECF3F8"/>
<path d="M-54 214.212L1472 214.212" stroke="#ECF3F8"/>
<path d="M-54 539.239L1472 539.239" stroke="#ECF3F8"/>
<path d="M-54 160.041L1472 160.041" stroke="#ECF3F8"/>
<path d="M-54 485.068L1472 485.068" stroke="#ECF3F8"/>
<path d="M-54 105.87L1472 105.87" stroke="#ECF3F8"/>
<path d="M-54 430.896L1472 430.896" stroke="#ECF3F8"/>
<path d="M-54 51.6986L1472 51.6986" stroke="#ECF3F8"/>
<path d="M-54 376.725L1472 376.725" stroke="#ECF3F8"/>
<path d="M-54 322.554L1472 322.554" stroke="#ECF3F8"/>
</svg>
