
<svg width="19" height="19" viewBox="0 0 19 19" fill="none" xmlns="http://www.w3.org/2000/svg">
<mask id="mask0_111_480" style="mask-type:alpha" maskUnits="userSpaceOnUse" x="0" y="0" width="19" height="19">
<rect x="0.761719" width="18.1806" height="18.1806" fill="#D9D9D9"/>
</mask>
<g mask="url(#mask0_111_480)">
<path d="M5.30801 14.393H7.58058V10.6054C7.58058 10.3907 7.65318 10.2108 7.79837 10.0656C7.94356 9.92043 8.12348 9.84784 8.33811 9.84784H11.3682C11.5828 9.84784 11.7627 9.92043 11.9079 10.0656C12.0531 10.2108 12.1257 10.3907 12.1257 10.6054V14.393H14.3983V7.57527L9.85315 4.16641L5.30801 7.57527V14.393ZM3.79297 14.393V7.57527C3.79297 7.33539 3.84663 7.10813 3.95394 6.8935C4.06126 6.67887 4.20961 6.50211 4.39899 6.36323L8.94413 2.95438C9.20926 2.75237 9.51227 2.65137 9.85315 2.65137C10.194 2.65137 10.497 2.75237 10.7622 2.95438L15.3073 6.36323C15.4967 6.50211 15.645 6.67887 15.7524 6.8935C15.8597 7.10813 15.9133 7.33539 15.9133 7.57527V14.393C15.9133 14.8096 15.765 15.1663 15.4683 15.463C15.1716 15.7597 14.8149 15.908 14.3983 15.908H11.3682C11.1536 15.908 10.9737 15.8354 10.8285 15.6902C10.6833 15.545 10.6107 15.3651 10.6107 15.1505V11.3629H9.09563V15.1505C9.09563 15.3651 9.02303 15.545 8.87784 15.6902C8.73265 15.8354 8.55274 15.908 8.33811 15.908H5.30801C4.89138 15.908 4.53471 15.7597 4.23801 15.463C3.94132 15.1663 3.79297 14.8096 3.79297 14.393Z" fill="#15394E"/>
</g>
</svg>
