<svg width="80" height="80" viewBox="0 0 80 80" fill="none" xmlns="http://www.w3.org/2000/svg">
<mask id="mask0_55_867" style="mask-type:alpha" maskUnits="userSpaceOnUse" x="0" y="0" width="80" height="80">
<rect width="80" height="80" fill="#D9D9D9"/>
</mask>
<g mask="url(#mask0_55_867)">
<path d="M26.3333 66.6666H53V56.6666C53 53 51.6944 49.8611 49.0833 47.25C46.4722 44.6388 43.3333 43.3333 39.6667 43.3333C36 43.3333 32.8611 44.6388 30.25 47.25C27.6389 49.8611 26.3333 53 26.3333 56.6666V66.6666ZM39.6667 36.6666C43.3333 36.6666 46.4722 35.3611 49.0833 32.75C51.6944 30.1388 53 27 53 23.3333V13.3333H26.3333V23.3333C26.3333 27 27.6389 30.1388 30.25 32.75C32.8611 35.3611 36 36.6666 39.6667 36.6666ZM16.3333 73.3333C15.3889 73.3333 14.5972 73.0138 13.9583 72.375C13.3194 71.7361 13 70.9444 13 70C13 69.0555 13.3194 68.2638 13.9583 67.625C14.5972 66.9861 15.3889 66.6666 16.3333 66.6666H19.6667V56.6666C19.6667 53.2777 20.4583 50.0972 22.0417 47.125C23.625 44.1527 25.8333 41.7777 28.6667 40C25.8333 38.2222 23.625 35.8472 22.0417 32.875C20.4583 29.9027 19.6667 26.7222 19.6667 23.3333V13.3333H16.3333C15.3889 13.3333 14.5972 13.0138 13.9583 12.375C13.3194 11.7361 13 10.9444 13 9.99996C13 9.05551 13.3194 8.26385 13.9583 7.62496C14.5972 6.98607 15.3889 6.66663 16.3333 6.66663H63C63.9444 6.66663 64.7361 6.98607 65.375 7.62496C66.0139 8.26385 66.3333 9.05551 66.3333 9.99996C66.3333 10.9444 66.0139 11.7361 65.375 12.375C64.7361 13.0138 63.9444 13.3333 63 13.3333H59.6667V23.3333C59.6667 26.7222 58.875 29.9027 57.2917 32.875C55.7083 35.8472 53.5 38.2222 50.6667 40C53.5 41.7777 55.7083 44.1527 57.2917 47.125C58.875 50.0972 59.6667 53.2777 59.6667 56.6666V66.6666H63C63.9444 66.6666 64.7361 66.9861 65.375 67.625C66.0139 68.2638 66.3333 69.0555 66.3333 70C66.3333 70.9444 66.0139 71.7361 65.375 72.375C64.7361 73.0138 63.9444 73.3333 63 73.3333H16.3333Z" fill="#0F3146"/>
</g>
</svg>
