<svg width="21" height="20" viewBox="0 0 21 20" fill="none" xmlns="http://www.w3.org/2000/svg">
<mask id="mask0_286_15" style="mask-type:alpha" maskUnits="userSpaceOnUse" x="0" y="0" width="21" height="20">
<rect x="0.5" width="20" height="20" fill="#D9D9D9"/>
</mask>
<g mask="url(#mask0_286_15)">
<path d="M10.5 14.1667C10.7361 14.1667 10.934 14.0868 11.0937 13.9271C11.2535 13.7674 11.3333 13.5694 11.3333 13.3333V10C11.3333 9.76389 11.2535 9.56597 11.0937 9.40625C10.934 9.24653 10.7361 9.16666 10.5 9.16666C10.2639 9.16666 10.066 9.24653 9.90624 9.40625C9.74652 9.56597 9.66666 9.76389 9.66666 10V13.3333C9.66666 13.5694 9.74652 13.7674 9.90624 13.9271C10.066 14.0868 10.2639 14.1667 10.5 14.1667ZM10.5 7.5C10.7361 7.5 10.934 7.42014 11.0937 7.26041C11.2535 7.10069 11.3333 6.90278 11.3333 6.66666C11.3333 6.43055 11.2535 6.23264 11.0937 6.07291C10.934 5.91319 10.7361 5.83333 10.5 5.83333C10.2639 5.83333 10.066 5.91319 9.90624 6.07291C9.74652 6.23264 9.66666 6.43055 9.66666 6.66666C9.66666 6.90278 9.74652 7.10069 9.90624 7.26041C10.066 7.42014 10.2639 7.5 10.5 7.5ZM10.5 18.3333C9.34721 18.3333 8.26388 18.1146 7.24999 17.6771C6.2361 17.2396 5.35416 16.6458 4.60416 15.8958C3.85416 15.1458 3.26041 14.2639 2.82291 13.25C2.38541 12.2361 2.16666 11.1528 2.16666 10C2.16666 8.84722 2.38541 7.76389 2.82291 6.75C3.26041 5.73611 3.85416 4.85416 4.60416 4.10416C5.35416 3.35416 6.2361 2.76041 7.24999 2.32291C8.26388 1.88541 9.34721 1.66666 10.5 1.66666C11.6528 1.66666 12.7361 1.88541 13.75 2.32291C14.7639 2.76041 15.6458 3.35416 16.3958 4.10416C17.1458 4.85416 17.7396 5.73611 18.1771 6.75C18.6146 7.76389 18.8333 8.84722 18.8333 10C18.8333 11.1528 18.6146 12.2361 18.1771 13.25C17.7396 14.2639 17.1458 15.1458 16.3958 15.8958C15.6458 16.6458 14.7639 17.2396 13.75 17.6771C12.7361 18.1146 11.6528 18.3333 10.5 18.3333ZM10.5 16.6667C12.3611 16.6667 13.9375 16.0208 15.2292 14.7292C16.5208 13.4375 17.1667 11.8611 17.1667 10C17.1667 8.13889 16.5208 6.5625 15.2292 5.27083C13.9375 3.97916 12.3611 3.33333 10.5 3.33333C8.63888 3.33333 7.06249 3.97916 5.77082 5.27083C4.47916 6.5625 3.83332 8.13889 3.83332 10C3.83332 11.8611 4.47916 13.4375 5.77082 14.7292C7.06249 16.0208 8.63888 16.6667 10.5 16.6667Z" fill="#26495D"/>
</g>
</svg>
