<svg width="19" height="19" viewBox="0 0 19 19" fill="none" xmlns="http://www.w3.org/2000/svg">
<mask id="mask0_111_508" style="mask-type:alpha" maskUnits="userSpaceOnUse" x="0" y="0" width="19" height="19">
<rect x="0.763672" width="18.1806" height="18.1806" fill="#D9D9D9"/>
</mask>
<g mask="url(#mask0_111_508)">
<path d="M16.0277 9.84781H7.58127C7.36664 9.84781 7.18673 9.77522 7.04154 9.63003C6.89634 9.48483 6.82375 9.30492 6.82375 9.09029C6.82375 8.87566 6.89634 8.69575 7.04154 8.55056C7.18673 8.40536 7.36664 8.33277 7.58127 8.33277H16.0277L15.3838 7.68887C15.2323 7.53737 15.1597 7.36061 15.166 7.15861C15.1723 6.9566 15.2449 6.77985 15.3838 6.62834C15.5353 6.47684 15.7152 6.39793 15.9235 6.39161C16.1318 6.3853 16.3117 6.4579 16.4632 6.6094L18.4139 8.56003C18.5654 8.71153 18.6411 8.88828 18.6411 9.09029C18.6411 9.2923 18.5654 9.46905 18.4139 9.62056L16.4632 11.5712C16.3117 11.7227 16.1318 11.7953 15.9235 11.789C15.7152 11.7827 15.5353 11.7037 15.3838 11.5522C15.2449 11.4007 15.1723 11.224 15.166 11.022C15.1597 10.82 15.2323 10.6432 15.3838 10.4917L16.0277 9.84781ZM12.1264 6.0602V3.78763H4.55118V14.393H12.1264V12.1204C12.1264 11.9058 12.199 11.7258 12.3442 11.5806C12.4894 11.4355 12.6693 11.3629 12.8839 11.3629C13.0986 11.3629 13.2785 11.4355 13.4237 11.5806C13.5689 11.7258 13.6415 11.9058 13.6415 12.1204V14.393C13.6415 14.8096 13.4931 15.1663 13.1964 15.463C12.8997 15.7597 12.543 15.908 12.1264 15.908H4.55118C4.13454 15.908 3.77787 15.7597 3.48118 15.463C3.18448 15.1663 3.03613 14.8096 3.03613 14.393V3.78763C3.03613 3.37099 3.18448 3.01432 3.48118 2.71763C3.77787 2.42093 4.13454 2.27258 4.55118 2.27258H12.1264C12.543 2.27258 12.8997 2.42093 13.1964 2.71763C13.4931 3.01432 13.6415 3.37099 13.6415 3.78763V6.0602C13.6415 6.27483 13.5689 6.45474 13.4237 6.59993C13.2785 6.74513 13.0986 6.81772 12.8839 6.81772C12.6693 6.81772 12.4894 6.74513 12.3442 6.59993C12.199 6.45474 12.1264 6.27483 12.1264 6.0602Z" fill="#FE5757" fill-opacity="0.9"/>
</g>
</svg>
