<svg width="223" height="34" viewBox="0 0 223 34" fill="none" xmlns="http://www.w3.org/2000/svg">
<path d="M19.7585 25.4855V4.31567H24.8754M19.7585 25.4855H27.5843M19.7585 25.4855H15.1433M24.8754 4.31567H27.9857M24.8754 4.31567V16.9574C24.8754 19.1738 26.6722 20.9706 28.8886 20.9706C31.1051 20.9706 32.9019 19.1738 32.9019 16.9574V15.3521H29.4906M15.1433 25.4855V4.31567H10.0265M15.1433 25.4855H7.31753M10.0265 4.31567H6.91621M10.0265 4.31567V16.9574C10.0265 19.1738 8.22968 20.9706 6.01323 20.9706C3.79679 20.9706 2 19.1738 2 16.9574V15.3521H5.41125" stroke="#FFC63E" stroke-width="2.5"/>
<path d="M48.1022 27V8.22156H56.4988C58.0011 8.22156 59.3424 8.45405 60.5228 8.91904C61.721 9.38403 62.7404 10.0457 63.581 10.9042C64.4394 11.7626 65.0832 12.7642 65.5125 13.9087C65.9596 15.0354 66.1831 16.2695 66.1831 17.6108C66.1831 18.97 65.9596 20.2219 65.5125 21.3665C65.0832 22.5111 64.4484 23.5036 63.6078 24.3442C62.7672 25.1848 61.7478 25.8375 60.5496 26.3025C59.3513 26.7675 58.0011 27 56.4988 27H48.1022ZM51.5896 24.2905L51.3213 23.7808H56.3647C57.3841 23.7808 58.2783 23.6288 59.0473 23.3248C59.8342 23.0208 60.487 22.5915 61.0056 22.0371C61.5243 21.4827 61.9177 20.8389 62.186 20.1056C62.4543 19.3545 62.5884 18.5229 62.5884 17.6108C62.5884 16.7166 62.4543 15.8939 62.186 15.1428C61.9177 14.3916 61.5153 13.7388 60.9788 13.1844C60.4602 12.63 59.8163 12.2008 59.0473 11.8968C58.2783 11.5927 57.3841 11.4407 56.3647 11.4407H51.2409L51.5896 10.9847V24.2905ZM65.9132 27V24.5588L77.6363 10.5554L78.7362 11.5212H66.6107V8.22156H81.9285V10.6359L70.2322 24.6661L69.1323 23.754H82.2236V27H65.9132ZM83.1575 20.8568V17.7449H92.198V20.8568H83.1575ZM94.5861 27V8.22156H97.8858L105.397 19.1399L103.6 19.1131L111.192 8.22156H114.384V27H110.923V19.8374C110.923 18.2814 110.959 16.8596 111.031 15.572C111.12 14.2664 111.263 12.9609 111.46 11.6553L111.862 12.8625L105.317 21.903H103.546L97.1346 12.8893L97.5102 11.6553C97.7069 12.9251 97.8411 14.2038 97.9126 15.4915C98.002 16.7613 98.0467 18.2099 98.0467 19.8374V27H94.5861ZM124.823 27.2683C123.232 27.2683 121.819 26.9553 120.585 26.3293C119.351 25.6855 118.376 24.8092 117.661 23.7004C116.963 22.5915 116.614 21.3307 116.614 19.9178C116.614 18.505 116.963 17.2442 117.661 16.1353C118.376 15.0265 119.351 14.1591 120.585 13.5332C121.819 12.8893 123.232 12.5674 124.823 12.5674C126.415 12.5674 127.828 12.8893 129.062 13.5332C130.296 14.1591 131.262 15.0265 131.959 16.1353C132.674 17.2442 133.032 18.505 133.032 19.9178C133.032 21.3307 132.674 22.5915 131.959 23.7004C131.262 24.8092 130.296 25.6855 129.062 26.3293C127.828 26.9553 126.415 27.2683 124.823 27.2683ZM124.823 24.3442C125.735 24.3442 126.558 24.1475 127.291 23.754C128.042 23.3606 128.624 22.833 129.035 22.1713C129.464 21.5095 129.679 20.7584 129.679 19.9178C129.679 19.0594 129.464 18.2993 129.035 17.6376C128.624 16.958 128.042 16.4304 127.291 16.0549C126.558 15.6793 125.735 15.4915 124.823 15.4915C123.929 15.4915 123.106 15.6882 122.355 16.0817C121.604 16.4572 121.014 16.9759 120.585 17.6376C120.155 18.2993 119.95 19.0594 119.968 19.9178C119.95 20.7584 120.155 21.5095 120.585 22.1713C121.014 22.833 121.604 23.3606 122.355 23.754C123.106 24.1475 123.929 24.3442 124.823 24.3442ZM140.563 27.2683C139.454 27.2683 138.488 27.0179 137.665 26.5171C136.843 26.0164 136.199 25.2921 135.734 24.3442C135.287 23.3963 135.063 22.2607 135.063 20.9372V12.8625H138.363V20.1325C138.363 21.0446 138.488 21.8136 138.739 22.4395C139.007 23.0476 139.4 23.5126 139.919 23.8345C140.455 24.1564 141.108 24.3174 141.877 24.3174C142.432 24.3174 142.941 24.2279 143.406 24.0491C143.889 23.8703 144.309 23.6199 144.667 23.298C145.025 22.9582 145.302 22.5647 145.499 22.1176C145.713 21.6526 145.821 21.1429 145.821 20.5885V12.8625H149.12V27H145.901L145.848 24.0491L146.438 23.7272C146.223 24.3531 145.839 24.9344 145.284 25.4709C144.73 26.0074 144.05 26.4456 143.245 26.7854C142.458 27.1073 141.564 27.2683 140.563 27.2683ZM152.65 27V7.1485H155.95V16.189L155.118 16.4572C155.315 15.7776 155.699 15.1517 156.272 14.5794C156.862 13.9892 157.577 13.5063 158.418 13.1308C159.258 12.7552 160.144 12.5674 161.074 12.5674C162.29 12.5674 163.309 12.8089 164.132 13.2917C164.954 13.7746 165.563 14.4542 165.956 15.3305C166.367 16.2069 166.573 17.2531 166.573 18.4692V27H163.273V18.8984C163.273 18.1473 163.139 17.5214 162.871 17.0206C162.603 16.502 162.209 16.1085 161.691 15.8402C161.19 15.572 160.6 15.4468 159.92 15.4647C159.348 15.4647 158.82 15.563 158.337 15.7598C157.854 15.9565 157.434 16.2248 157.076 16.5646C156.719 16.8865 156.442 17.2531 156.245 17.6644C156.066 18.0758 155.977 18.505 155.977 18.9521V27H154.313C153.902 27 153.553 27 153.267 27C152.999 27 152.793 27 152.65 27ZM175.705 27.2683C174.328 27.2683 173.103 26.9553 172.03 26.3293C170.975 25.6855 170.134 24.8092 169.508 23.7004C168.9 22.5915 168.596 21.3218 168.596 19.891C168.596 18.4782 168.909 17.2173 169.535 16.1085C170.161 14.9997 171.019 14.1323 172.11 13.5063C173.219 12.8804 174.48 12.5674 175.893 12.5674C176.733 12.5674 177.502 12.6747 178.2 12.8893C178.915 13.104 179.532 13.408 180.051 13.8014C180.587 14.177 181.017 14.5973 181.339 15.0623C181.66 15.5094 181.857 15.9833 181.929 16.4841L181.151 16.4036V12.8625H184.45V27H181.124V23.4053L181.848 23.4321C181.759 23.8792 181.535 24.3352 181.178 24.8002C180.838 25.2473 180.382 25.6587 179.809 26.0343C179.255 26.3919 178.629 26.687 177.932 26.9195C177.234 27.152 176.492 27.2683 175.705 27.2683ZM176.59 24.3442C177.502 24.3442 178.307 24.1564 179.005 23.7808C179.72 23.4053 180.274 22.8866 180.668 22.2249C181.061 21.5453 181.258 20.7673 181.258 19.891C181.258 19.0505 181.061 18.2993 180.668 17.6376C180.274 16.9759 179.72 16.4572 179.005 16.0817C178.307 15.6882 177.502 15.4915 176.59 15.4915C175.66 15.4915 174.847 15.6882 174.149 16.0817C173.452 16.4572 172.906 16.9759 172.513 17.6376C172.137 18.2993 171.949 19.0505 171.949 19.891C171.949 20.7673 172.137 21.5453 172.513 22.2249C172.906 22.8866 173.452 23.4053 174.149 23.7808C174.847 24.1564 175.66 24.3442 176.59 24.3442ZM187.783 27V12.8625H191.029L191.083 16.1353H190.331C190.51 15.7061 190.779 15.2858 191.136 14.8745C191.512 14.4453 191.959 14.0697 192.478 13.7478C192.996 13.408 193.569 13.1397 194.194 12.943C194.82 12.7284 195.491 12.6211 196.206 12.6211C197.047 12.6211 197.807 12.7552 198.487 13.0235C199.166 13.2739 199.73 13.6852 200.177 14.2575C200.624 14.8298 200.937 15.5541 201.116 16.4304L200.391 16.2695L200.606 15.8402C200.838 15.4468 201.151 15.0623 201.545 14.6867C201.938 14.3111 202.394 13.9713 202.913 13.6673C203.432 13.3454 203.995 13.095 204.603 12.9162C205.211 12.7194 205.828 12.6211 206.454 12.6211C207.724 12.6211 208.752 12.8625 209.539 13.3454C210.344 13.8283 210.925 14.5168 211.283 15.411C211.658 16.3052 211.846 17.3604 211.846 18.5765V27H208.52V18.8984C208.52 18.1831 208.412 17.575 208.198 17.0743C208.001 16.5735 207.679 16.1979 207.232 15.9475C206.803 15.6793 206.248 15.5452 205.569 15.5452C204.997 15.5452 204.451 15.6435 203.932 15.8402C203.432 16.0191 202.993 16.2784 202.618 16.6182C202.242 16.958 201.947 17.3515 201.733 17.7986C201.536 18.2278 201.438 18.6928 201.438 19.1935V27H198.111V18.8716C198.111 18.1741 197.995 17.584 197.762 17.1011C197.53 16.6003 197.181 16.2158 196.716 15.9475C196.251 15.6793 195.661 15.5452 194.946 15.5452C194.391 15.5452 193.881 15.6435 193.416 15.8402C192.952 16.037 192.54 16.3052 192.182 16.645C191.843 16.9669 191.574 17.3246 191.378 17.7181C191.199 18.1115 191.109 18.5229 191.109 18.9521V27H187.783ZM215.54 27V12.8625H218.84V27H215.54ZM217.15 9.75066C216.488 9.75066 215.969 9.5897 215.594 9.26779C215.236 8.92799 215.057 8.45405 215.057 7.84599C215.057 7.27369 215.245 6.8087 215.621 6.45102C215.996 6.09333 216.506 5.91449 217.15 5.91449C217.811 5.91449 218.33 6.08439 218.706 6.42419C219.081 6.74611 219.269 7.22004 219.269 7.84599C219.269 8.4004 219.072 8.85645 218.679 9.21413C218.303 9.57182 217.793 9.75066 217.15 9.75066Z" fill="#094B72"/>
</svg>
