<svg width="90" height="90" viewBox="0 0 90 90" fill="none" xmlns="http://www.w3.org/2000/svg">
<mask id="mask0_55_561" style="mask-type:alpha" maskUnits="userSpaceOnUse" x="0" y="0" width="90" height="90">
<rect width="90" height="90" fill="#D9D9D9"/>
</mask>
<g mask="url(#mask0_55_561)">
<path d="M41.25 45C37.125 45 33.5938 43.5312 30.6562 40.5938C27.7188 37.6562 26.25 34.125 26.25 30C26.25 25.875 27.7188 22.3438 30.6562 19.4062C33.5938 16.4688 37.125 15 41.25 15C45.375 15 48.9062 16.4688 51.8437 19.4062C54.7812 22.3438 56.25 25.875 56.25 30C56.25 34.125 54.7812 37.6562 51.8437 40.5938C48.9062 43.5312 45.375 45 41.25 45ZM41.25 37.5C43.3125 37.5 45.0781 36.7656 46.5469 35.2969C48.0156 33.8281 48.75 32.0625 48.75 30C48.75 27.9375 48.0156 26.1719 46.5469 24.7031C45.0781 23.2344 43.3125 22.5 41.25 22.5C39.1875 22.5 37.4219 23.2344 35.9531 24.7031C34.4844 26.1719 33.75 27.9375 33.75 30C33.75 32.0625 34.4844 33.8281 35.9531 35.2969C37.4219 36.7656 39.1875 37.5 41.25 37.5ZM80.25 85.5L70.875 76.125C69.5625 76.875 68.1562 77.5 66.6562 78C65.1562 78.5 63.5625 78.75 61.875 78.75C57.1875 78.75 53.2031 77.1094 49.9219 73.8281C46.6406 70.5469 45 66.5625 45 61.875C45 57.1875 46.6406 53.2031 49.9219 49.9219C53.2031 46.6406 57.1875 45 61.875 45C66.5625 45 70.5469 46.6406 73.8281 49.9219C77.1094 53.2031 78.75 57.1875 78.75 61.875C78.75 63.5625 78.5 65.1562 78 66.6562C77.5 68.1562 76.875 69.5625 76.125 70.875L85.5 80.25C86.1875 80.9375 86.5312 81.8125 86.5312 82.875C86.5312 83.9375 86.1875 84.8125 85.5 85.5C84.8125 86.1875 83.9375 86.5312 82.875 86.5312C81.8125 86.5312 80.9375 86.1875 80.25 85.5ZM61.875 71.25C64.5 71.25 66.7188 70.3438 68.5312 68.5312C70.3438 66.7188 71.25 64.5 71.25 61.875C71.25 59.25 70.3438 57.0312 68.5312 55.2188C66.7188 53.4062 64.5 52.5 61.875 52.5C59.25 52.5 57.0312 53.4062 55.2188 55.2188C53.4062 57.0312 52.5 59.25 52.5 61.875C52.5 64.5 53.4062 66.7188 55.2188 68.5312C57.0312 70.3438 59.25 71.25 61.875 71.25ZM11.25 67.5V64.5938C11.25 62.4688 11.7812 60.5 12.8438 58.6875C13.9062 56.875 15.375 55.5 17.25 54.5625C20.4375 52.9375 24.0312 51.5625 28.0312 50.4375C32.0312 49.3125 36.4688 48.75 41.3438 48.75C40.5938 49.875 39.9531 51.0781 39.4219 52.3594C38.8906 53.6406 38.4687 54.9688 38.1562 56.3438C34.4062 56.6562 31.0625 57.2969 28.125 58.2656C25.1875 59.2344 22.7188 60.25 20.7188 61.3125C20.0938 61.625 19.6094 62.0781 19.2656 62.6719C18.9219 63.2656 18.75 63.9062 18.75 64.5938V67.5H38.1562C38.4687 68.875 38.8906 70.1875 39.4219 71.4375C39.9531 72.6875 40.5938 73.875 41.3438 75H18.75C16.6875 75 14.9219 74.2656 13.4531 72.7969C11.9844 71.3281 11.25 69.5625 11.25 67.5Z" fill="#FFC63E"/>
</g>
</svg>
