<svg width="23" height="23" viewBox="0 0 23 23" fill="none" xmlns="http://www.w3.org/2000/svg">
<mask id="mask0_55_942" style="mask-type:alpha" maskUnits="userSpaceOnUse" x="0" y="0" width="23" height="23">
<rect x="0.765625" y="0.8125" width="21.375" height="21.375" fill="#D9D9D9"/>
</mask>
<g mask="url(#mask0_55_942)">
<path d="M16.3961 8.98398L19.5355 5.82227C19.7137 5.64414 19.9252 5.55508 20.1701 5.55508C20.415 5.55508 20.6266 5.64414 20.8047 5.82227C20.9828 6.00039 21.0719 6.21191 21.0719 6.45684C21.0719 6.70176 20.9828 6.91328 20.8047 7.09141L17.0195 10.8766C16.8414 11.0547 16.6336 11.1437 16.3961 11.1437C16.1586 11.1437 15.9508 11.0547 15.7727 10.8766L13.8801 8.98398C13.702 8.80586 13.6129 8.59434 13.6129 8.34941C13.6129 8.10449 13.702 7.89297 13.8801 7.71484C14.0582 7.53672 14.266 7.44766 14.5035 7.44766C14.741 7.44766 14.9488 7.53672 15.127 7.71484L16.3961 8.98398ZM8.78125 11.5C7.80156 11.5 6.96289 11.1512 6.26523 10.4535C5.56758 9.75586 5.21875 8.91719 5.21875 7.9375C5.21875 6.95781 5.56758 6.11914 6.26523 5.42148C6.96289 4.72383 7.80156 4.375 8.78125 4.375C9.76094 4.375 10.5996 4.72383 11.2973 5.42148C11.9949 6.11914 12.3438 6.95781 12.3438 7.9375C12.3438 8.91719 11.9949 9.75586 11.2973 10.4535C10.5996 11.1512 9.76094 11.5 8.78125 11.5ZM1.65625 16.8438V16.1312C1.65625 15.6266 1.78613 15.1627 2.0459 14.7396C2.30566 14.3166 2.65078 13.9938 3.08125 13.7711C4.00156 13.3109 4.93672 12.9658 5.88672 12.7357C6.83672 12.5057 7.80156 12.3906 8.78125 12.3906C9.76094 12.3906 10.7258 12.5057 11.6758 12.7357C12.6258 12.9658 13.5609 13.3109 14.4813 13.7711C14.9117 13.9938 15.2568 14.3166 15.5166 14.7396C15.7764 15.1627 15.9063 15.6266 15.9063 16.1312V16.8438C15.9063 17.3336 15.7318 17.7529 15.383 18.1018C15.0342 18.4506 14.6148 18.625 14.125 18.625H3.4375C2.94766 18.625 2.52832 18.4506 2.17949 18.1018C1.83066 17.7529 1.65625 17.3336 1.65625 16.8438ZM3.4375 16.8438H14.125V16.1312C14.125 15.968 14.0842 15.8195 14.0025 15.6859C13.9209 15.5523 13.8133 15.4484 13.6797 15.3742C12.8781 14.9734 12.0691 14.6729 11.2527 14.4725C10.4363 14.2721 9.6125 14.1719 8.78125 14.1719C7.95 14.1719 7.12617 14.2721 6.30977 14.4725C5.49336 14.6729 4.68438 14.9734 3.88281 15.3742C3.74922 15.4484 3.6416 15.5523 3.55996 15.6859C3.47832 15.8195 3.4375 15.968 3.4375 16.1312V16.8438ZM8.78125 9.71875C9.27109 9.71875 9.69043 9.54434 10.0393 9.19551C10.3881 8.84668 10.5625 8.42734 10.5625 7.9375C10.5625 7.44766 10.3881 7.02832 10.0393 6.67949C9.69043 6.33066 9.27109 6.15625 8.78125 6.15625C8.29141 6.15625 7.87207 6.33066 7.52324 6.67949C7.17441 7.02832 7 7.44766 7 7.9375C7 8.42734 7.17441 8.84668 7.52324 9.19551C7.87207 9.54434 8.29141 9.71875 8.78125 9.71875Z" fill="white"/>
</g>
</svg>
