<svg width="80" height="80" viewBox="0 0 80 80" fill="none" xmlns="http://www.w3.org/2000/svg">
<mask id="mask0_55_979" style="mask-type:alpha" maskUnits="userSpaceOnUse" x="0" y="0" width="80" height="80">
<rect width="80" height="80" fill="#D9D9D9"/>
</mask>
<g mask="url(#mask0_55_979)">
<path d="M58.4997 30.5834L70.2497 18.75C70.9164 18.0834 71.708 17.75 72.6247 17.75C73.5414 17.75 74.333 18.0834 74.9997 18.75C75.6664 19.4167 75.9997 20.2084 75.9997 21.125C75.9997 22.0417 75.6664 22.8334 74.9997 23.5L60.833 37.6667C60.1664 38.3334 59.3886 38.6667 58.4997 38.6667C57.6108 38.6667 56.833 38.3334 56.1663 37.6667L49.083 30.5834C48.4163 29.9167 48.083 29.125 48.083 28.2084C48.083 27.2917 48.4163 26.5 49.083 25.8334C49.7497 25.1667 50.5275 24.8334 51.4163 24.8334C52.3052 24.8334 53.083 25.1667 53.7497 25.8334L58.4997 30.5834ZM29.9997 40C26.333 40 23.1941 38.6945 20.583 36.0834C17.9719 33.4723 16.6663 30.3334 16.6663 26.6667C16.6663 23 17.9719 19.8612 20.583 17.25C23.1941 14.6389 26.333 13.3334 29.9997 13.3334C33.6663 13.3334 36.8052 14.6389 39.4163 17.25C42.0275 19.8612 43.333 23 43.333 26.6667C43.333 30.3334 42.0275 33.4723 39.4163 36.0834C36.8052 38.6945 33.6663 40 29.9997 40ZM3.33301 60V57.3334C3.33301 55.4445 3.81912 53.7084 4.79134 52.125C5.76356 50.5417 7.05523 49.3334 8.66634 48.5C12.1108 46.7778 15.6108 45.4861 19.1663 44.625C22.7219 43.7639 26.333 43.3334 29.9997 43.3334C33.6663 43.3334 37.2775 43.7639 40.833 44.625C44.3886 45.4861 47.8886 46.7778 51.333 48.5C52.9441 49.3334 54.2358 50.5417 55.208 52.125C56.1802 53.7084 56.6664 55.4445 56.6664 57.3334V60C56.6664 61.8334 56.0136 63.4028 54.708 64.7084C53.4025 66.0139 51.833 66.6667 49.9997 66.6667H9.99968C8.16634 66.6667 6.5969 66.0139 5.29134 64.7084C3.98579 63.4028 3.33301 61.8334 3.33301 60ZM9.99968 60H49.9997V57.3334C49.9997 56.7223 49.8469 56.1667 49.5413 55.6667C49.2358 55.1667 48.833 54.7778 48.333 54.5C45.333 53 42.3052 51.875 39.2497 51.125C36.1941 50.375 33.1108 50 29.9997 50C26.8886 50 23.8052 50.375 20.7497 51.125C17.6941 51.875 14.6663 53 11.6663 54.5C11.1663 54.7778 10.7636 55.1667 10.458 55.6667C10.1525 56.1667 9.99968 56.7223 9.99968 57.3334V60ZM29.9997 33.3334C31.833 33.3334 33.4025 32.6806 34.708 31.375C36.0136 30.0695 36.6663 28.5 36.6663 26.6667C36.6663 24.8334 36.0136 23.2639 34.708 21.9584C33.4025 20.6528 31.833 20 29.9997 20C28.1663 20 26.5969 20.6528 25.2913 21.9584C23.9858 23.2639 23.333 24.8334 23.333 26.6667C23.333 28.5 23.9858 30.0695 25.2913 31.375C26.5969 32.6806 28.1663 33.3334 29.9997 33.3334Z" fill="#0F3146"/>
</g>
</svg>
