<svg width="25" height="25" viewBox="0 0 25 25" fill="none" xmlns="http://www.w3.org/2000/svg">
<mask id="mask0_392_663" style="mask-type:alpha" maskUnits="userSpaceOnUse" x="0" y="0" width="25" height="25">
<rect x="0.272949" y="0.246643" width="24" height="24" fill="#D9D9D9"/>
</mask>
<g mask="url(#mask0_392_663)">
<path d="M10.7729 15.2466H13.7729L13.1979 12.0216C13.5313 11.855 13.7938 11.6133 13.9854 11.2966C14.1771 10.98 14.2729 10.63 14.2729 10.2466C14.2729 9.69664 14.0771 9.22581 13.6854 8.83414C13.2938 8.44248 12.8229 8.24664 12.2729 8.24664C11.7229 8.24664 11.2521 8.44248 10.8604 8.83414C10.4688 9.22581 10.2729 9.69664 10.2729 10.2466C10.2729 10.63 10.3688 10.98 10.5604 11.2966C10.7521 11.6133 11.0146 11.855 11.3479 12.0216L10.7729 15.2466ZM12.2729 22.2466C9.95628 21.6633 8.04378 20.3341 6.53545 18.2591C5.02712 16.1841 4.27295 13.88 4.27295 11.3466V5.24664L12.2729 2.24664L20.2729 5.24664V11.3466C20.2729 13.88 19.5188 16.1841 18.0104 18.2591C16.5021 20.3341 14.5896 21.6633 12.2729 22.2466ZM12.2729 20.1466C14.0063 19.5966 15.4396 18.4966 16.5729 16.8466C17.7063 15.1966 18.2729 13.3633 18.2729 11.3466V6.62164L12.2729 4.37164L6.27295 6.62164V11.3466C6.27295 13.3633 6.83962 15.1966 7.97295 16.8466C9.10628 18.4966 10.5396 19.5966 12.2729 20.1466Z" fill="#094B72"/>
</g>
</svg>
