<svg width="19" height="19" viewBox="0 0 19 19" fill="none" xmlns="http://www.w3.org/2000/svg">
<mask id="mask0_111_502" style="mask-type:alpha" maskUnits="userSpaceOnUse" x="0" y="0" width="19" height="19">
<rect x="0.763672" width="18.1806" height="18.1806" fill="#D9D9D9"/>
</mask>
<g mask="url(#mask0_111_502)">
<path d="M5.19478 12.9536C5.83868 12.4612 6.55833 12.073 7.35373 11.7889C8.14913 11.5049 8.9824 11.3628 9.85355 11.3628C10.7247 11.3628 11.558 11.5049 12.3534 11.7889C13.1488 12.073 13.8684 12.4612 14.5123 12.9536C14.9542 12.436 15.2983 11.8489 15.5444 11.1924C15.7906 10.5359 15.9137 9.83514 15.9137 9.09025C15.9137 7.41107 15.3235 5.98125 14.143 4.80077C12.9626 3.6203 11.5327 3.03006 9.85355 3.03006C8.17438 3.03006 6.74455 3.6203 5.56408 4.80077C4.3836 5.98125 3.79337 7.41107 3.79337 9.09025C3.79337 9.83514 3.91646 10.5359 4.16266 11.1924C4.40885 11.8489 4.7529 12.436 5.19478 12.9536ZM9.85355 9.84777C9.10865 9.84777 8.48054 9.59211 7.96921 9.08078C7.45789 8.56945 7.20222 7.94134 7.20222 7.19644C7.20222 6.45154 7.45789 5.82343 7.96921 5.3121C8.48054 4.80077 9.10865 4.54511 9.85355 4.54511C10.5984 4.54511 11.2266 4.80077 11.7379 5.3121C12.2492 5.82343 12.5049 6.45154 12.5049 7.19644C12.5049 7.94134 12.2492 8.56945 11.7379 9.08078C11.2266 9.59211 10.5984 9.84777 9.85355 9.84777ZM9.85355 16.6655C8.80564 16.6655 7.82086 16.4666 6.89921 16.0689C5.97756 15.6712 5.17585 15.1315 4.49408 14.4497C3.8123 13.768 3.27257 12.9662 2.87487 12.0446C2.47717 11.1229 2.27832 10.1382 2.27832 9.09025C2.27832 8.04234 2.47717 7.05756 2.87487 6.13591C3.27257 5.21425 3.8123 4.41254 4.49408 3.73077C5.17585 3.049 5.97756 2.50926 6.89921 2.11156C7.82086 1.71386 8.80564 1.51501 9.85355 1.51501C10.9015 1.51501 11.8862 1.71386 12.8079 2.11156C13.7295 2.50926 14.5313 3.049 15.213 3.73077C15.8948 4.41254 16.4345 5.21425 16.8322 6.13591C17.2299 7.05756 17.4288 8.04234 17.4288 9.09025C17.4288 10.1382 17.2299 11.1229 16.8322 12.0446C16.4345 12.9662 15.8948 13.768 15.213 14.4497C14.5313 15.1315 13.7295 15.6712 12.8079 16.0689C11.8862 16.4666 10.9015 16.6655 9.85355 16.6655ZM9.85355 15.1504C10.5227 15.1504 11.154 15.0526 11.7474 14.8569C12.3408 14.6612 12.8836 14.3803 13.376 14.0141C12.8836 13.648 12.3408 13.3671 11.7474 13.1714C11.154 12.9757 10.5227 12.8779 9.85355 12.8779C9.18441 12.8779 8.55314 12.9757 7.95974 13.1714C7.36635 13.3671 6.82346 13.648 6.33107 14.0141C6.82346 14.3803 7.36635 14.6612 7.95974 14.8569C8.55314 15.0526 9.18441 15.1504 9.85355 15.1504ZM9.85355 8.33272C10.1818 8.33272 10.4533 8.22541 10.6679 8.01078C10.8825 7.79614 10.9898 7.5247 10.9898 7.19644C10.9898 6.86818 10.8825 6.59673 10.6679 6.3821C10.4533 6.16747 10.1818 6.06015 9.85355 6.06015C9.52529 6.06015 9.25385 6.16747 9.03921 6.3821C8.82458 6.59673 8.71727 6.86818 8.71727 7.19644C8.71727 7.5247 8.82458 7.79614 9.03921 8.01078C9.25385 8.22541 9.52529 8.33272 9.85355 8.33272Z" fill="#15394E"/>
</g>
</svg>
