<svg width="19" height="19" viewBox="0 0 19 19" fill="none" xmlns="http://www.w3.org/2000/svg">
<mask id="mask0_111_492" style="mask-type:alpha" maskUnits="userSpaceOnUse" x="0" y="0" width="19" height="19">
<rect x="0.761719" width="18.1806" height="18.1806" fill="#D9D9D9"/>
</mask>
<g mask="url(#mask0_111_492)">
<path d="M7.57932 15.1504H4.54923C4.13259 15.1504 3.77592 15.0021 3.47922 14.7054C3.18253 14.4087 3.03418 14.052 3.03418 13.6354V3.03006C3.03418 2.61342 3.18253 2.25676 3.47922 1.96006C3.77592 1.66336 4.13259 1.51501 4.54923 1.51501H15.1545C15.5712 1.51501 15.9279 1.66336 16.2246 1.96006C16.5212 2.25676 16.6696 2.61342 16.6696 3.03006V13.6354C16.6696 14.052 16.5212 14.4087 16.2246 14.7054C15.9279 15.0021 15.5712 15.1504 15.1545 15.1504H12.1245L10.3822 16.8927C10.2306 17.0442 10.0539 17.12 9.85189 17.12C9.64988 17.12 9.47313 17.0442 9.32162 16.8927L7.57932 15.1504ZM4.54923 13.6354H8.18534L9.85189 15.3019L11.5184 13.6354H15.1545V3.03006H4.54923V13.6354ZM9.77614 12.8779C10.0413 12.8779 10.2654 12.7863 10.4484 12.6033C10.6315 12.4202 10.723 12.1961 10.723 11.931C10.723 11.6658 10.6315 11.4417 10.4484 11.2587C10.2654 11.0756 10.0413 10.9841 9.77614 10.9841C9.511 10.9841 9.2869 11.0756 9.10383 11.2587C8.92077 11.4417 8.82923 11.6658 8.82923 11.931C8.82923 12.1961 8.92077 12.4202 9.10383 12.6033C9.2869 12.7863 9.511 12.8779 9.77614 12.8779ZM11.1018 6.06015C11.1018 6.27479 11.0324 6.5052 10.8935 6.75139C10.7546 6.99759 10.521 7.26588 10.1928 7.55626C9.97814 7.74564 9.80454 7.92555 9.67198 8.096C9.53941 8.26644 9.42894 8.44004 9.34056 8.61679C9.29006 8.7178 9.25218 8.8188 9.22693 8.9198C9.20168 9.02081 9.17643 9.13444 9.15118 9.26069C9.12593 9.45007 9.17643 9.6142 9.30268 9.75308C9.42894 9.89196 9.59307 9.9614 9.79507 9.9614C9.97183 9.9614 10.1296 9.89827 10.2685 9.77202C10.4074 9.64576 10.5021 9.47532 10.5526 9.26069C10.5905 9.08393 10.6631 8.9198 10.7704 8.7683C10.8777 8.61679 11.0513 8.4211 11.2912 8.18122C11.7331 7.73933 12.0455 7.36688 12.2286 7.06387C12.4117 6.76086 12.5032 6.42629 12.5032 6.06015C12.5032 5.37838 12.2728 4.82918 11.812 4.41254C11.3512 3.9959 10.723 3.78758 9.92764 3.78758C9.3595 3.78758 8.86711 3.90753 8.45047 4.14741C8.03383 4.38729 7.69926 4.72186 7.44675 5.15113C7.35837 5.30263 7.35522 5.46045 7.43728 5.62458C7.51935 5.78871 7.64876 5.90234 7.82551 5.96546C7.98964 6.02859 8.15377 6.02859 8.3179 5.96546C8.48203 5.90234 8.6146 5.80133 8.7156 5.66245C8.85448 5.4857 9.02493 5.34366 9.22693 5.23635C9.42894 5.12903 9.66251 5.07537 9.92764 5.07537C10.2559 5.07537 10.5337 5.16691 10.7609 5.34998C10.9882 5.53304 11.1018 5.76977 11.1018 6.06015Z" fill="#15394E"/>
</g>
</svg>
