<svg width="90" height="90" viewBox="0 0 90 90" fill="none" xmlns="http://www.w3.org/2000/svg">
<path d="M35.625 60C28.8125 60 23.0469 57.6406 18.3281 52.9219C13.6094 48.2031 11.25 42.4375 11.25 35.625C11.25 28.8125 13.6094 23.0469 18.3281 18.3281C23.0469 13.6094 28.8125 11.25 35.625 11.25C42.4375 11.25 48.2031 13.6094 52.9219 18.3281C57.6406 23.0469 60 28.8125 60 35.625C60 38.375 59.5625 40.9688 58.6875 43.4062C57.8125 45.8438 56.625 48 55.125 49.875L76.125 70.875C76.8125 71.5625 77.1562 72.4375 77.1562 73.5C77.1562 74.5625 76.8125 75.4375 76.125 76.125C75.4375 76.8125 74.5625 77.1562 73.5 77.1562C72.4375 77.1562 71.5625 76.8125 70.875 76.125L49.875 55.125C48 56.625 45.8438 57.8125 43.4062 58.6875C40.9688 59.5625 38.375 60 35.625 60ZM35.625 52.5C40.3125 52.5 44.2969 50.8594 47.5781 47.5781C50.8594 44.2969 52.5 40.3125 52.5 35.625C52.5 30.9375 50.8594 26.9531 47.5781 23.6719C44.2969 20.3906 40.3125 18.75 35.625 18.75C30.9375 18.75 26.9531 20.3906 23.6719 23.6719C20.3906 26.9531 18.75 30.9375 18.75 35.625C18.75 40.3125 20.3906 44.2969 23.6719 47.5781C26.9531 50.8594 30.9375 52.5 35.625 52.5Z" fill="#FFC63E"/>
</svg>
