<svg width="24" height="24" viewBox="0 0 24 24" fill="none" xmlns="http://www.w3.org/2000/svg">
<mask id="mask0_392_669" style="mask-type:alpha" maskUnits="userSpaceOnUse" x="0" y="0" width="24" height="24">
<rect width="24" height="24" fill="#D9D9D9"/>
</mask>
<g mask="url(#mask0_392_669)">
<path d="M5 21C4.45 21 3.97917 20.8042 3.5875 20.4125C3.19583 20.0208 3 19.55 3 19V5C3 4.45 3.19583 3.97917 3.5875 3.5875C3.97917 3.19583 4.45 3 5 3H16L21 8V19C21 19.55 20.8042 20.0208 20.4125 20.4125C20.0208 20.8042 19.55 21 19 21H5ZM5 19H19V9H15V5H5V19ZM7 17H17V15H7V17ZM7 9H12V7H7V9ZM7 13H17V11H7V13Z" fill="#094B72"/>
</g>
</svg>
