<svg width="90" height="90" viewBox="0 0 90 90" fill="none" xmlns="http://www.w3.org/2000/svg">
<mask id="mask0_52_19" style="mask-type:alpha" maskUnits="userSpaceOnUse" x="0" y="0" width="90" height="90">
<rect width="90" height="90" fill="#EFBC42"/>
</mask>
<g mask="url(#mask0_52_19)">
<path d="M41.0623 47.625L35.6248 42.2813C34.9373 41.5938 34.0779 41.25 33.0467 41.25C32.0154 41.25 31.1248 41.625 30.3748 42.375C29.6873 43.0625 29.3436 43.9375 29.3436 45C29.3436 46.0625 29.6873 46.9375 30.3748 47.625L38.4373 55.6875C39.1873 56.4375 40.0623 56.8125 41.0623 56.8125C42.0623 56.8125 42.9373 56.4375 43.6873 55.6875L59.6248 39.75C60.3748 39 60.7342 38.125 60.7029 37.125C60.6717 36.125 60.3123 35.25 59.6248 34.5C58.8748 33.75 57.9842 33.3594 56.9529 33.3281C55.9217 33.2969 55.0311 33.6563 54.2811 34.4063L41.0623 47.625ZM30.5623 81.5625L25.1248 72.375L14.8123 70.125C13.8748 69.9375 13.1248 69.4531 12.5623 68.6719C11.9998 67.8906 11.7811 67.0313 11.9061 66.0938L12.9373 55.5L5.90607 47.4375C5.28107 46.75 4.96857 45.9375 4.96857 45C4.96857 44.0625 5.28107 43.25 5.90607 42.5625L12.9373 34.5L11.9061 23.9063C11.7811 22.9688 11.9998 22.1094 12.5623 21.3281C13.1248 20.5469 13.8748 20.0625 14.8123 19.875L25.1248 17.625L30.5623 8.43752C31.0623 7.62502 31.7498 7.07814 32.6248 6.79689C33.4998 6.51564 34.3748 6.56252 35.2498 6.93752L44.9998 11.0625L54.7498 6.93752C55.6248 6.56252 56.4998 6.51564 57.3748 6.79689C58.2498 7.07814 58.9373 7.62502 59.4373 8.43752L64.8748 17.625L75.1873 19.875C76.1248 20.0625 76.8748 20.5469 77.4373 21.3281C77.9998 22.1094 78.2186 22.9688 78.0936 23.9063L77.0623 34.5L84.0936 42.5625C84.7186 43.25 85.0311 44.0625 85.0311 45C85.0311 45.9375 84.7186 46.75 84.0936 47.4375L77.0623 55.5L78.0936 66.0938C78.2186 67.0313 77.9998 67.8906 77.4373 68.6719C76.8748 69.4531 76.1248 69.9375 75.1873 70.125L64.8748 72.375L59.4373 81.5625C58.9373 82.375 58.2498 82.9219 57.3748 83.2031C56.4998 83.4844 55.6248 83.4375 54.7498 83.0625L44.9998 78.9375L35.2498 83.0625C34.3748 83.4375 33.4998 83.4844 32.6248 83.2031C31.7498 82.9219 31.0623 82.375 30.5623 81.5625ZM35.4373 74.8125L44.9998 70.6875L54.7498 74.8125L59.9998 65.8125L70.3123 63.375L69.3748 52.875L76.3123 45L69.3748 36.9375L70.3123 26.4375L59.9998 24.1875L54.5623 15.1875L44.9998 19.3125L35.2498 15.1875L29.9998 24.1875L19.6873 26.4375L20.6248 36.9375L13.6873 45L20.6248 52.875L19.6873 63.5625L29.9998 65.8125L35.4373 74.8125Z" fill="#FFC63E"/>
</g>
</svg>
